<?xml version="1.0" encoding="UTF-8"?>
<svg width="184px" height="36px" viewBox="0 0 184 36" version="1.1" xmlns="http://www.w3.org/2000/svg" xmlns:xlink="http://www.w3.org/1999/xlink">
    <!-- Generator: Sketch 43.2 (39069) - http://www.bohemiancoding.com/sketch -->
    <title>anr_homepage_white</title>
    <desc>Created with Sketch.</desc>
    <defs></defs>
    <g id="Page-1" stroke="none" stroke-width="1" fill="none" fill-rule="evenodd">
        <g id="anr_homepage_white" fill="#FFFFFF">
            <path d="M14.8560015,8.02643077 C14.8560015,11.8248923 16.2478776,12.4382769 17.4488678,12.4382769 C18.8593022,12.4382769 20.0430597,11.7432 20.0430597,7.84366154 L20.0430597,1.71535385 C20.0430597,1.32673846 20.1818054,1.24596923 20.4252733,1.20535385 C20.9303254,1.14396923 21.6094726,1.1232 21.9567788,1.1232 C21.9223133,1.93966154 21.9046387,3.14427692 21.9046387,4.83996923 L21.9046387,7.74073846 C21.9046387,13.4601231 19.3290052,14.2761231 17.2053999,14.2761231 C14.2643437,14.2761231 12.6802562,12.4992 12.6802562,8.10858462 L12.6802562,3.92104615 C12.6802562,2.55212308 12.6625816,1.71535385 12.6276742,1.28612308 C12.9409568,1.22427692 14.1423888,1.1232 14.4905788,1.1232 C14.8034195,1.1232 14.8560015,1.30689231 14.8560015,2.30750769 L14.8560015,8.02643077 Z" id="Fill-1"></path>
            <path d="M29.2317395,8.45552308 C29.2317395,7.27121538 28.6913381,6.59690769 27.926469,6.59690769 C27.2473219,6.59690769 26.8116426,6.96475385 26.4289871,7.35198462 L26.4289871,13.4604462 C26.4289871,13.8273692 26.3764051,13.9289077 26.028657,13.9695231 C25.4369992,14.0715231 24.8970397,14.0932154 24.2709164,14.0932154 C24.3053819,13.0095231 24.3234984,11.7647538 24.3234984,10.3755231 L24.3234984,7.02475385 C24.3234984,6.41275385 24.2536836,6.10721538 23.9925412,5.92352308 L23.9925412,5.77998462 C24.1666362,5.26998462 24.758294,4.73783077 25.2978116,4.73783077 C25.9592842,4.73783077 26.2204266,5.47352308 26.3251487,6.10721538 C27.0383195,5.3706 27.8734452,4.73783077 28.7439201,4.73783077 C30.9541309,4.73783077 31.3376701,6.8826 31.3376701,8.47536923 L31.3376701,11.0489077 C31.3376701,12.1109077 31.3549028,13.2342923 31.4070429,13.9289077 C31.0071547,13.9695231 30.310333,14.0932154 29.5790457,14.0932154 C29.3183451,14.0932154 29.2317395,13.9695231 29.2317395,13.7036769 L29.2317395,8.45552308 Z" id="Fill-3"></path>
            <path d="M35.8269344,13.4792308 C35.8269344,13.8470769 35.7054214,13.95 35.3223241,14.01 C34.9736922,14.0713846 34.3475689,14.0930769 33.6684218,14.0930769 C33.6856545,13.2558462 33.7205619,12.0692308 33.7205619,10.8858462 L33.7205619,7.39246154 C33.7205619,6.14769231 33.6856545,5.51492308 33.651189,5.10461538 C34.0510772,4.96246154 35.1482291,4.86046154 35.5136518,4.86046154 C35.7575615,4.86046154 35.8269344,4.96246154 35.8269344,6.14769231 L35.8269344,13.4792308 Z M34.8177138,0.449076923 C35.4787444,0.449076923 35.8795164,1.02138462 35.8795164,1.77692308 C35.8795164,2.55184615 35.4093716,3.16661538 34.747899,3.16661538 C34.2083813,3.16661538 33.651189,2.77753846 33.651189,1.83784615 C33.651189,0.837230769 34.3648017,0.449076923 34.8000391,0.449076923 L34.8177138,0.449076923 Z" id="Fill-5"></path>
            <path d="M39.0468519,4.73796923 C39.273087,4.73796923 39.4113909,4.92166154 39.4988802,5.20781538 C39.8996521,6.57673846 40.5774737,8.86366154 41.2049226,11.2950462 C41.9008606,8.94489231 42.7015208,6.41289231 43.1367582,4.73796923 C43.6241358,4.73796923 44.0416986,4.83996923 44.4597033,5.06427692 C44.8246841,5.24796923 44.7380785,5.69796923 44.4941688,6.43458462 C43.7633234,8.5572 42.7708937,11.3356615 42.0396064,13.4790462 C41.935768,13.8062769 41.7793476,13.9290462 41.5182052,14.0102769 C41.082084,14.1325846 40.4913099,14.2147385 40.1426781,14.2147385 C39.5682531,12.2135077 38.924897,10.2925846 38.1414696,7.88473846 C37.7928378,6.80150769 37.5321372,5.98366154 37.2360874,5.24796923 C37.6368593,4.98304615 38.5590325,4.73796923 39.0291773,4.73796923 L39.0468519,4.73796923 Z" id="Fill-7"></path>
            <path d="M49.1062275,6.16855385 C48.4615458,6.16855385 47.7656078,6.88255385 47.6957931,8.41486154 C48.4098476,8.47532308 49.7495835,8.45547692 50.1667045,8.41486154 C50.2895431,8.41486154 50.3938233,8.2104 50.3938233,7.98609231 C50.4110561,6.98547692 50.010726,6.16855385 49.1230184,6.16855385 L49.1062275,6.16855385 Z M52.0296091,11.9484 C52.0296091,12.8465538 51.4207186,13.6847077 51.1242269,13.8471692 C50.8639681,13.9902462 50.1150063,14.2150154 49.5056738,14.2150154 C46.9645058,14.2150154 45.5721879,12.5807077 45.5721879,9.57793846 C45.5721879,7.10686154 46.947273,4.73778462 49.2971134,4.73778462 C51.5077661,4.73778462 52.3596826,6.61670769 52.3782409,8.25193846 C52.3782409,8.53855385 52.3596826,8.76193846 52.325659,8.92532308 C52.273077,9.23178462 51.5771389,9.5184 50.8639681,9.72193846 C50.4282888,9.84563077 48.6184081,9.86455385 47.6608857,9.82301538 C47.7479332,11.6220923 48.8618759,12.3776308 50.0456334,12.3776308 C50.8812009,12.3776308 51.6990938,12.0693231 51.9955855,11.9073231 L52.0296091,11.9484 Z" id="Fill-9"></path>
            <path d="M53.6819207,5.79987692 C53.8215501,5.33003077 54.4825808,4.73787692 54.9527256,4.73787692 C55.7189203,4.73787692 56.031761,5.59633846 56.0489937,6.8628 C56.5540459,5.47356923 57.2848913,4.73787692 58.2075063,4.73787692 C58.5384635,4.73787692 58.8689789,4.92203077 59.0253992,5.08587692 C59.1128886,5.30972308 59.0956558,5.90095385 58.921119,6.29003077 C58.8513042,6.72018462 58.5031143,7.20895385 58.2419718,7.25049231 C57.8942237,7.08803077 57.702896,7.04649231 57.4077299,7.04649231 C57.128471,7.04649231 56.6238606,7.29156923 56.3446017,8.14818462 C56.2403215,8.47541538 56.1881813,8.69972308 56.1881813,9.14972308 L56.1881813,13.4180308 C56.1881813,13.7452615 56.1537158,13.9091077 55.8059678,13.9903385 C55.1970772,14.0715692 54.6562339,14.0932615 54.0301106,14.0932615 C54.0645761,13.0095692 54.0822507,11.7648 54.0822507,10.3755692 L54.0822507,6.92326154 C54.0822507,6.45341538 53.9779705,6.08556923 53.6819207,5.88203077 L53.6819207,5.79987692 Z" id="Fill-11"></path>
            <path d="M62.8713516,4.73796923 C63.5677315,4.73796923 64.2464368,4.94243077 64.82042,5.45381538 C64.8380946,5.98366154 64.6295342,6.78073846 64.0202017,6.72027692 C63.6715699,6.53612308 63.2363325,6.39304615 62.8192115,6.39304615 C62.2964847,6.39304615 61.931062,6.72027692 61.931062,7.20904615 C61.931062,7.63781538 62.210321,7.88473846 62.5748599,8.12843077 C62.906259,8.35366154 63.6021971,8.72150769 64.002969,8.96658462 C64.8725601,9.53796923 65.2207501,10.3142769 65.2207501,11.2128923 C65.2207501,13.2339692 63.6896864,14.2147385 62.1060407,14.2147385 C61.4264517,14.2147385 60.6960482,13.9904308 60.2259034,13.6433538 C59.9992264,13.4601231 59.8428061,13.2150462 59.8428061,12.9076615 C59.8604807,12.4793538 60.0513665,12.0298154 60.2957181,11.8055077 C60.8003284,12.1719692 61.5492903,12.5398154 62.2443446,12.5398154 C62.8713516,12.5398154 63.2363325,12.1927385 63.2363325,11.6836615 C63.2363325,11.3148923 63.0631212,11.0490462 62.5580691,10.7435077 C62.1232735,10.4568923 61.6694777,10.2122769 61.235124,9.92473846 C60.5219532,9.45627692 60.016901,8.67996923 60.016901,7.59812308 C60.016901,5.78012308 61.3570788,4.73796923 62.853677,4.73796923 L62.8713516,4.73796923 Z" id="Fill-13"></path>
            <path d="M68.9629525,13.4792308 C68.9629525,13.8470769 68.8409977,13.95 68.4574585,14.01 C68.1097104,14.0713846 67.4831452,14.0930769 66.8039981,14.0930769 C66.8216727,13.2558462 66.8565801,12.0692308 66.8565801,10.8858462 L66.8565801,7.39246154 C66.8565801,6.14769231 66.8216727,5.51492308 66.7867653,5.10461538 C67.1870954,4.96246154 68.2842472,4.86046154 68.6492281,4.86046154 C68.8926959,4.86046154 68.9629525,4.96246154 68.9629525,6.14769231 L68.9629525,13.4792308 Z M67.95329,0.449076923 C68.6143207,0.449076923 69.0146508,1.02138462 69.0146508,1.77692308 C69.0146508,2.55184615 68.544506,3.16661538 67.8839172,3.16661538 C67.3435158,3.16661538 66.7867653,2.77753846 66.7867653,1.83784615 C66.7867653,0.837230769 67.500378,0.449076923 67.9356154,0.449076923 L67.95329,0.449076923 Z" id="Fill-15"></path>
            <path d="M76.0280713,12.1315846 C76.1146769,12.6217385 76.0461878,13.2558923 75.7320215,13.5614308 C75.3149005,13.9902 74.5836132,14.2149692 73.8178605,14.2149692 C72.0420033,14.2149692 71.4680202,12.8880462 71.4680202,11.4780462 L71.4680202,6.59681538 C70.8242222,6.59681538 70.4937069,6.22804615 70.4937069,6.02450769 C70.7367329,5.43189231 72.1471673,3.96281538 72.4427753,3.67712308 C72.7388251,3.39050769 73.0693404,3.14404615 73.7480457,3.06327692 C73.6786729,3.67712308 73.6437655,4.41050769 73.6437655,4.98327692 L76.219399,4.98327692 C76.0108385,6.39281538 75.6281831,6.45327692 75.2799931,6.49389231 C74.8792212,6.53635385 74.3224708,6.57696923 73.5916254,6.57696923 C73.5218106,8.25189231 73.5394852,10.2323538 73.6088581,11.0903538 C73.6963475,12.0918923 74.1656086,12.4597385 74.7577082,12.4597385 C75.2799931,12.4597385 75.7673707,12.2534308 75.976373,12.0918923 L76.0280713,12.1315846 Z" id="Fill-17"></path>
            <path d="M77.7156879,17.2986462 C78.2384147,16.6252615 79.2825427,14.9295692 79.9263406,13.5001846 C79.839735,13.3566462 79.6479654,12.9283385 79.5436851,12.6020308 C79.2131698,11.6221846 77.6993389,6.92326154 77.0369826,5.28941538 C77.524802,5.00372308 78.3776023,4.73787692 78.8123979,4.73787692 C79.1256805,4.73787692 79.2131698,4.98295385 79.3351247,5.30926154 C79.7703621,6.63710769 80.6054878,9.4968 81.0221668,11.0300308 C81.6496157,9.16956923 82.3981358,6.18849231 82.6243709,4.73787692 C82.9721189,4.75956923 83.3905655,4.82003077 83.8253611,4.96218462 C84.2429239,5.08587692 84.2955059,5.35172308 84.1903419,5.84141538 C83.7387555,7.96403077 83.0247009,10.5592615 82.0154803,13.0312615 C80.9015376,15.7464923 79.5264524,18.1368 79.1256805,18.1368 C78.516348,18.1368 77.9074575,17.6872615 77.7156879,17.3808 L77.7156879,17.2986462 Z" id="Fill-19"></path>
            <path d="M91.3181614,11.1841846 C91.8797723,10.9146462 92.50457,9.32649231 92.50457,7.27356923 C92.4917559,6.10633846 92.1347287,5.58064615 91.6495605,5.58064615 C91.5342336,5.58064615 91.3941622,5.61156923 91.2792772,5.67203077 C90.8833658,5.88110769 90.0800545,7.13926154 90.0800545,9.53556923 C90.0800545,10.6741846 90.475524,11.2580308 90.9602504,11.2580308 C91.1131358,11.2580308 91.2032764,11.2294154 91.3181614,11.1841846 M88.6382476,9.49126154 C88.6382476,7.5288 89.5573277,6.09110769 90.5524086,5.47633846 C91.0623213,5.16156923 91.6239323,4.95156923 92.1214727,4.95156923 C93.3083232,4.95156923 93.9463769,5.86587692 93.9463769,7.31972308 C93.9463769,8.62218462 93.499651,10.0303385 92.5810128,10.9441846 C92.0322159,11.4998769 91.2412768,11.9037231 90.475524,11.9037231 C89.0593454,11.9037231 88.6382476,10.6594154 88.6382476,9.49126154" id="Fill-21"></path>
            <path d="M96.0147048,5.20763077 C96.2440329,4.02332308 96.5511294,3.07855385 97.1502989,2.36086154 C97.8144226,1.56563077 98.6172921,1.14655385 99.1280885,1.14655385 C99.6888157,1.14655385 100.008284,1.55132308 99.9963541,1.8804 C99.9822144,2.2104 99.7409559,2.52516923 99.5752563,2.65993846 C99.4594876,2.73609231 99.3454863,2.74947692 99.2420898,2.61516923 C98.9243886,2.18132308 98.6429203,1.92655385 98.3875221,1.92655385 C98.0689371,1.91178462 97.7746547,2.3304 97.3800689,5.20763077 L98.847504,5.20763077 L98.5669194,5.76101538 L97.2651839,5.89532308 C97.048228,7.36393846 96.8944588,8.51778462 96.5635016,10.2107077 C96.0911475,12.7113231 95.5423506,13.7451692 94.7253415,14.6151692 C94.1765446,15.1990154 93.6790041,15.4533231 93.3087209,15.4533231 C92.9132514,15.4533231 92.4674092,15.1242462 92.4797814,14.7637846 C92.4797814,14.4647077 92.6830395,14.1651692 92.888065,13.9860923 C92.990136,13.8956308 93.0665787,13.8804 93.1558355,13.9551692 C93.3856055,14.2247077 93.8327733,14.4337846 94.0881715,14.4337846 C94.2923134,14.4337846 94.4443151,14.3156308 94.5468278,14.0904 C94.6493406,13.8804 94.8402265,13.3117846 95.2105097,10.7488615 C95.5171643,8.68255385 95.6828638,7.36393846 95.8998198,5.89532308 L94.8658547,5.89532308 L94.8145983,5.73055385 L95.235696,5.20763077 L96.0147048,5.20763077 Z" id="Fill-23"></path>
            <path d="M111.738486,11.9684308 C111.686788,12.6625846 111.460552,13.2556615 111.163619,13.5819692 C110.728823,13.9092 109.806208,14.2761231 108.640125,14.2761231 C104.672174,14.2761231 102.530894,11.6222769 102.530894,7.71996923 C102.530894,3.4932 105.264274,0.897969231 108.709498,0.897969231 C110.363842,0.897969231 111.635089,1.55150769 111.913023,1.92027692 C111.947488,2.61396923 111.546716,3.30904615 110.990408,3.20658462 C110.468123,2.94027692 109.649788,2.65458462 108.691824,2.65458462 C106.587219,2.65458462 104.863502,4.26812308 104.863502,7.53581538 C104.863502,10.3142769 106.377333,12.4382769 109.145178,12.4382769 C110.31126,12.4382769 111.234317,12.0921231 111.686788,11.9268923 L111.738486,11.9684308 Z" id="Fill-25"></path>
            <path d="M114.940287,11.3356154 C114.940287,12.0496154 115.409548,12.4599231 115.967182,12.4599231 C116.454118,12.4599231 116.732935,12.2342308 116.975961,11.9268462 C117.06345,11.8054615 117.116032,11.5996154 117.116032,11.2326923 L117.116032,9.78346154 C115.601317,9.98792308 114.940287,10.6414615 114.940287,11.3148462 L114.940287,11.3356154 Z M120.021739,12.4991538 C120.039856,13.5819231 119.552478,14.2146923 118.559606,14.2146923 C117.846878,14.2146923 117.377616,13.7868462 117.150498,13.0719231 C116.697586,13.6433077 115.931833,14.2146923 115.096707,14.2146923 C113.947857,14.2146923 112.920962,13.1933077 112.920962,11.6836154 C112.920962,9.57761538 115.009218,9.00715385 116.245115,8.67992308 C116.559282,8.59869231 116.940612,8.53823077 117.150498,8.47546154 L117.150498,8.12838462 C117.150498,7.27084615 116.645445,6.57669231 115.775854,6.57669231 C115.149289,6.57669231 114.539957,6.903 114.156859,7.16838462 C113.426456,7.41346154 113.181662,6.67776923 113.181662,6.06669231 C113.930624,5.43207692 115.166522,4.73792308 116.333047,4.73792308 C117.898576,4.73792308 119.168939,5.96284615 119.168939,8.18976923 C119.168939,9.027 119.100008,10.5791538 119.100008,11.907 C119.100008,12.1719231 119.30901,12.4599231 119.726573,12.4599231 C119.812737,12.4599231 119.935575,12.4382308 120.021739,12.4183846 L120.021739,12.4991538 Z" id="Fill-27"></path>
            <path d="M121.639011,2.65472308 C121.639011,1.45056923 121.606313,0.897646154 121.57008,0.489646154 C121.918712,0.305492308 123.049003,0.122723077 123.41531,0.122723077 C123.676452,0.122723077 123.746709,0.224261538 123.746709,1.45056923 L123.746709,11.2734923 C123.746709,12.2759538 123.781174,13.3762615 123.81564,13.9698 C123.450659,14.0713385 122.127272,14.1327231 121.884246,14.1327231 C121.709709,14.1327231 121.639011,14.0713385 121.639011,13.8687231 L121.639011,2.65472308 Z" id="Fill-29"></path>
            <path d="M128.201419,13.4792308 C128.201419,13.8470769 128.079906,13.95 127.696367,14.01 C127.348619,14.0713846 126.722054,14.0930769 126.042023,14.0930769 C126.060139,13.2558462 126.095489,12.0692308 126.095489,10.8858462 L126.095489,7.39246154 C126.095489,6.14769231 126.060139,5.51492308 126.02479,5.10461538 C126.42512,4.96246154 127.522272,4.86046154 127.887253,4.86046154 C128.130721,4.86046154 128.201419,4.96246154 128.201419,6.14769231 L128.201419,13.4792308 Z M127.191757,0.449076923 C127.852787,0.449076923 128.253117,1.02138462 128.253117,1.77692308 C128.253117,2.55184615 127.783856,3.16661538 127.121942,3.16661538 C126.582424,3.16661538 126.02479,2.77753846 126.02479,1.83784615 C126.02479,0.837230769 126.738403,0.449076923 127.174524,0.449076923 L127.191757,0.449076923 Z" id="Fill-31"></path>
            <path d="M134.136379,0 C134.624198,0 135.092576,0.183692308 135.336927,0.469846154 C135.441207,0.979846154 135.075343,1.87753846 134.60564,1.83784615 C134.466894,1.77692308 134.275125,1.73630769 134.136379,1.73630769 C133.282695,1.73630769 132.847899,2.67461538 132.899598,4.98323077 C133.143065,4.98323077 134.570291,5.004 134.988295,4.94261538 C134.936597,5.616 134.675897,6.08584615 134.449661,6.26953846 C134.223426,6.474 133.614094,6.55430769 132.847899,6.55430769 C132.847899,8.27169231 132.91683,12.8067692 132.91683,13.9292308 C132.359638,14.0298462 131.228904,14.0930769 130.985437,14.0930769 C130.811342,14.0930769 130.706619,14.0524615 130.706619,13.7450769 C130.759201,11.5393846 130.741969,9.06830769 130.741969,6.55430769 C130.062822,6.49384615 129.732306,6.26953846 129.732306,5.82046154 C130.027472,5.41338462 130.307173,5.28969231 130.741969,4.98323077 C130.741969,2.89984615 131.246137,1.73630769 131.960633,0.939230769 C132.691037,0.163384615 133.457232,0 134.118262,0 L134.136379,0 Z" id="Fill-33"></path>
            <path d="M138.956335,6.24969231 C137.894974,6.24969231 137.320108,7.536 137.320108,9.29307692 C137.320108,11.6224615 138.156117,12.7029231 139.148105,12.7029231 C140.226698,12.7029231 140.766216,11.4572308 140.766216,9.57784615 C140.766216,7.84338462 140.244815,6.24969231 138.973568,6.24969231 L138.956335,6.24969231 Z M139.148105,4.73815385 C141.653924,4.73815385 142.977311,6.82107692 142.977311,9.35353846 C142.977311,12.2136923 141.393665,14.2149231 138.956335,14.2149231 C136.710775,14.2149231 135.109897,12.4596923 135.109897,9.55892308 C135.109897,6.78046154 136.798706,4.73815385 139.130872,4.73815385 L139.148105,4.73815385 Z" id="Fill-35"></path>
            <path d="M144.455483,5.79987692 C144.594229,5.33003077 145.256143,4.73787692 145.725846,4.73787692 C146.492041,4.73787692 146.80444,5.59633846 146.821672,6.8628 C147.327608,5.47356923 148.058454,4.73787692 148.981069,4.73787692 C149.3107,4.73787692 149.642099,4.92203077 149.799403,5.08587692 C149.885567,5.30972308 149.868334,5.90095385 149.693797,6.29003077 C149.624866,6.72018462 149.276235,7.20895385 149.015534,7.25049231 C148.666902,7.08803077 148.475575,7.04649231 148.180408,7.04649231 C147.902475,7.04649231 147.396539,7.29156923 147.118606,8.14818462 C147.013442,8.47541538 146.961744,8.69972308 146.961744,9.14972308 L146.961744,13.4180308 C146.961744,13.7452615 146.927278,13.9091077 146.578646,13.9903385 C145.969314,14.0715692 145.43068,14.0932615 144.802347,14.0932615 C144.83858,13.0095692 144.855813,11.7648 144.855813,10.3755692 L144.855813,6.92326154 C144.855813,6.45341538 144.750649,6.08556923 144.455483,5.88203077 L144.455483,5.79987692 Z" id="Fill-37"></path>
            <path d="M156.289213,8.45552308 C156.289213,7.27121538 155.750579,6.59690769 154.984385,6.59690769 C154.305238,6.59690769 153.870884,6.96475385 153.486903,7.35198462 L153.486903,13.4604462 C153.486903,13.8273692 153.435205,13.9289077 153.087456,13.9695231 C152.495357,14.0715231 151.956723,14.0932154 151.329274,14.0932154 C151.364181,13.0095231 151.381414,11.7647538 151.381414,10.3755231 L151.381414,7.02475385 C151.381414,6.41275385 151.311157,6.10721538 151.050899,5.92352308 L151.050899,5.77998462 C151.224994,5.26998462 151.817093,4.73783077 152.356611,4.73783077 C153.018525,4.73783077 153.279226,5.47352308 153.382623,6.10721538 C154.097119,5.3706 154.932686,4.73783077 155.803161,4.73783077 C158.011605,4.73783077 158.396911,6.8826 158.396911,8.47536923 L158.396911,11.0489077 C158.396911,12.1109077 158.41326,13.2342923 158.465842,13.9289077 C158.064629,13.9695231 157.369574,14.0932154 156.637845,14.0932154 C156.376261,14.0932154 156.289213,13.9695231 156.289213,13.7036769 L156.289213,8.45552308 Z" id="Fill-39"></path>
            <path d="M162.902525,13.4792308 C162.902525,13.8470769 162.781012,13.95 162.397473,14.01 C162.049724,14.0713846 161.423159,14.0930769 160.744896,14.0930769 C160.761245,13.2558462 160.796594,12.0692308 160.796594,10.8858462 L160.796594,7.39246154 C160.796594,6.14769231 160.761245,5.51492308 160.726779,5.10461538 C161.127109,4.96246154 162.223378,4.86046154 162.589242,4.86046154 C162.833594,4.86046154 162.902525,4.96246154 162.902525,6.14769231 L162.902525,13.4792308 Z M161.893746,0.449076923 C162.554777,0.449076923 162.954223,1.02138462 162.954223,1.77692308 C162.954223,2.55184615 162.485846,3.16661538 161.824815,3.16661538 C161.284414,3.16661538 160.726779,2.77753846 160.726779,1.83784615 C160.726779,0.837230769 161.440392,0.449076923 161.876513,0.449076923 L161.893746,0.449076923 Z" id="Fill-41"></path>
            <path d="M166.645434,11.3356154 C166.645434,12.0496154 167.114695,12.4599231 167.671446,12.4599231 C168.159265,12.4599231 168.437198,12.2342308 168.681108,11.9268462 C168.768597,11.8054615 168.820296,11.5996154 168.820296,11.2326923 L168.820296,9.78346154 C167.306465,9.98792308 166.645434,10.6414615 166.645434,11.3148462 L166.645434,11.3356154 Z M171.726886,12.4991538 C171.744119,13.5819231 171.257625,14.2146923 170.264754,14.2146923 C169.552025,14.2146923 169.08188,13.7868462 168.854761,13.0719231 C168.402733,13.6433077 167.63698,14.2146923 166.800971,14.2146923 C165.653004,14.2146923 164.626109,13.1933077 164.626109,11.6836154 C164.626109,9.57761538 166.714365,9.00715385 167.950263,8.67992308 C168.263545,8.59869231 168.645759,8.53823077 168.854761,8.47546154 L168.854761,8.12838462 C168.854761,7.27084615 168.350593,6.57669231 167.480118,6.57669231 C166.853553,6.57669231 166.245104,6.903 165.862007,7.16838462 C165.129836,7.41346154 164.88681,6.67776923 164.88681,6.06669231 C165.635772,5.43207692 166.869902,4.73792308 168.036426,4.73792308 C169.603723,4.73792308 170.874086,5.96284615 170.874086,8.18976923 C170.874086,9.027 170.805155,10.5791538 170.805155,11.907 C170.805155,12.1719231 171.014158,12.4599231 171.429953,12.4599231 C171.517884,12.4599231 171.639839,12.4382308 171.726886,12.4183846 L171.726886,12.4991538 Z" id="Fill-43"></path>
            <path d="M16.2426636,25.1421231 L16.2077562,25.1421231 C15.867078,26.2281231 15.5507023,27.3256615 15.2219544,28.3835077 L17.1701391,28.3835077 L16.2426636,25.1421231 Z M17.2991638,32.2032 L17.2991638,31.7518154 C18.0026135,31.6248923 18.0728701,31.4698154 17.9089381,30.8776615 C17.7799134,30.4128923 17.5806321,29.7501231 17.3694204,29.0739692 L15.0346035,29.0739692 C14.8817181,29.5959692 14.7173441,30.1313538 14.5768309,30.6944308 C14.3775496,31.4564308 14.4358759,31.6248923 15.2926529,31.7518154 L15.2926529,32.2032 L12.6989029,32.2032 L12.6989029,31.7518154 C13.4620045,31.6248923 13.6140062,31.4984308 14.0134525,30.2859692 L16.418526,23.0001231 L16.9355085,22.8293538 C17.6862379,25.2833538 18.4254787,27.8190462 19.1881385,30.2435077 C19.5752126,31.4850462 19.728098,31.6382769 20.4788274,31.7518154 L20.4788274,32.2032 L17.2991638,32.2032 Z" id="Fill-45"></path>
            <path d="M23.3561224,26.3117077 C22.9571179,26.3117077 22.5700438,26.8761692 22.5700438,27.9326308 C22.5700438,28.9475538 22.8983498,29.7354 23.485589,29.7501692 C23.9663386,29.7354 24.2831561,29.1727846 24.2831561,28.1154 C24.2831561,27.1290923 23.9663386,26.3117077 23.3680528,26.3117077 L23.3561224,26.3117077 Z M23.5090079,32.4561692 C22.9451876,32.4561692 22.6871382,32.5272462 22.4993454,32.7534 C22.2881337,32.9924769 22.1356901,33.2601692 22.1356901,33.5984769 C22.1356901,34.3166308 22.7573948,34.9521692 23.6618933,34.9521692 C24.6348809,34.9521692 25.1748405,34.3309385 25.1748405,33.5421692 C25.1748405,33.0492462 24.9287214,32.7247846 24.5641825,32.5974 C24.2592953,32.4857077 23.9778271,32.4561692 23.5209382,32.4561692 L23.5090079,32.4561692 Z M26.3833424,26.1289385 C26.3015973,26.3684769 26.0784553,26.7917077 25.8787321,26.9315538 L25.2106316,26.8761692 C25.3975407,27.1715538 25.5270072,27.5375538 25.5270072,28.0161692 C25.5270072,29.5115538 24.4470881,30.2435538 23.3561224,30.2435538 C23.1563992,30.2435538 22.9571179,30.2020154 22.7693251,30.1734 C22.6637193,30.2855538 22.5461831,30.4692462 22.5461831,30.6386308 C22.5461831,30.8777077 22.7459063,31.1740154 23.2858658,31.1740154 C23.6848703,31.1740154 24.0485255,31.1449385 24.4236693,31.1449385 C25.163352,31.1449385 26.1840611,31.4140154 26.1840611,32.8521692 C26.1840611,34.4020154 24.693649,35.7127846 23.1329804,35.7127846 C21.6898479,35.7127846 20.9974448,34.7832462 20.9974448,33.9926308 C20.9974448,33.6677077 21.1145391,33.4295538 21.3261927,33.2177077 C21.5961724,32.9361692 21.9598277,32.6532462 22.241296,32.4146308 C21.7835234,32.2170923 21.5259158,31.9350923 21.3725885,31.6249385 C21.2559361,31.4140154 21.1967261,31.1034 21.2205868,30.9354 C21.7720349,30.6810923 22.1480624,30.2998615 22.359274,30.0321692 C21.7132668,29.7501692 21.2440057,29.0592462 21.2440057,28.1578615 C21.2440057,26.5650923 22.4529495,25.8330923 23.4502398,25.8330923 L23.4621701,25.8330923 C23.9080123,25.8330923 24.2592953,25.9447846 24.6702302,26.1990923 C25.2689578,26.1709385 25.8787321,26.0860154 26.3250162,26.0158615 L26.3833424,26.1289385 Z" id="Fill-47"></path>
            <path d="M28.9657365,27.3258462 C29.3651828,26.4955385 29.8463743,25.8332308 30.3275657,25.8332308 C30.7729661,25.8332308 31.0782951,26.2126154 31.0782951,26.6496923 C31.0782951,27.0586154 30.855153,27.4250769 30.5736848,27.552 C30.4207993,27.6226154 30.3032631,27.5949231 30.2334484,27.5086154 C30.0337252,27.3124615 29.893212,27.2132308 29.7054192,27.2132308 C29.4473698,27.2132308 29.1654597,27.4818462 28.9427595,28.1298462 L28.9427595,30.7370769 C28.9427595,31.6246154 29.0015276,31.6961538 29.9051424,31.7796923 L29.9051424,32.2029231 L26.8779224,32.2029231 L26.8779224,31.7796923 C27.5464648,31.6961538 27.6520706,31.6246154 27.6520706,30.7370769 L27.6520706,27.7061538 C27.6520706,26.9183077 27.581814,26.8610769 26.9826445,26.7193846 L26.9826445,26.3533846 C27.6401402,26.2421538 28.2742171,26.0727692 28.9427595,25.8050769 L28.9427595,27.3258462 L28.9657365,27.3258462 Z" id="Fill-49"></path>
            <path d="M32.1714259,23.9296615 C32.1714259,23.4233538 32.5227089,23.0278154 32.9225972,23.0278154 C33.3441368,23.0278154 33.6728846,23.4233538 33.6728846,23.9296615 C33.6728846,24.4082769 33.3441368,24.8181231 32.9106668,24.8181231 C32.5227089,24.8181231 32.1714259,24.4082769 32.1714259,23.9296615 L32.1714259,23.9296615 Z M31.5846287,32.2032 L31.5846287,31.7799692 C32.2885203,31.6816615 32.3587769,31.6248923 32.3587769,30.6385846 L32.3587769,27.8052 C32.3587769,26.9033538 32.2885203,26.8461231 31.6778623,26.7348923 L31.6778623,26.3398154 C32.3472884,26.2424308 33.0507381,26.0582769 33.6499076,25.8187385 L33.6499076,30.6385846 C33.6499076,31.5958154 33.7082339,31.6816615 34.4351025,31.7799692 L34.4351025,32.2032 L31.5846287,32.2032 Z" id="Fill-51"></path>
            <path d="M39.5991837,30.8775231 C39.0715963,31.7521385 38.2970063,32.3729077 37.5926728,32.3729077 C36.0328878,32.3729077 35.1169008,30.9199846 35.1169008,29.3996769 C35.1169008,28.3422923 35.5393242,27.3689077 36.3019839,26.6784462 C37.0058755,26.0433692 37.7574886,25.8329077 38.2028889,25.8329077 L38.2143774,25.8329077 C38.649173,25.8329077 39.036689,25.9879846 39.2355284,26.1855231 C39.3994605,26.3396769 39.4467401,26.4822923 39.4467401,26.6636769 C39.4352516,27.0301385 39.1537833,27.3836769 38.9779209,27.3836769 C38.9067805,27.3836769 38.8365239,27.3402923 38.73136,27.2276769 C38.2970063,26.7615231 37.9099322,26.5515231 37.545835,26.5515231 C36.9709681,26.5515231 36.3956594,27.1718308 36.3956594,28.6787538 C36.3956594,30.5816769 37.5104858,31.2029077 38.0738642,31.2029077 C38.5674279,31.2029077 38.9191528,31.0459846 39.387972,30.5544462 L39.5991837,30.8775231 Z" id="Fill-53"></path>
            <path d="M46.1372012,31.8646154 C45.8314303,31.9218462 45.5031243,31.9915385 45.1394691,32.0907692 C44.7996745,32.1756923 44.4470659,32.2883077 44.1421788,32.3732308 L44.0604337,32.2735385 L44.0604337,31.3726154 C43.8253613,31.5835385 43.649057,31.7796923 43.3671469,31.9772308 C43.0269105,32.2310769 42.7339537,32.3732308 42.3932755,32.3732308 C41.4781722,32.3732308 40.8798864,31.6818462 40.8798864,30.3290769 L40.8798864,27.4818462 C40.8798864,26.7918462 40.7981413,26.7193846 40.5043008,26.6215385 L40.2109021,26.5370769 L40.2109021,26.1424615 C40.4932542,26.1290769 40.8215602,26.1009231 41.1971458,26.0584615 C41.5603591,26.016 41.9359448,25.9449231 42.2059245,25.9033846 C42.1829475,26.4387692 42.1710172,27.1292308 42.1710172,28.0029231 L42.1710172,29.9898462 C42.1710172,31.0329231 42.6168594,31.3569231 43.0622597,31.3569231 C43.4144265,31.3569231 43.7427325,31.2304615 44.0604337,30.8635385 L44.0604337,27.4818462 C44.0604337,26.7918462 43.977363,26.7069231 43.6366848,26.6215385 L43.2504944,26.5370769 L43.2504944,26.1424615 C43.5902889,26.1290769 44.0012237,26.1009231 44.3763675,26.0436923 C44.7643253,26.016 45.1156083,25.9449231 45.3502389,25.9033846 L45.3502389,30.5261538 C45.3502389,31.2586154 45.4204955,31.3726154 45.8544073,31.4284615 L46.1372012,31.4561538 L46.1372012,31.8646154 Z" id="Fill-55"></path>
            <path d="M46.6431371,32.2031077 L46.6431371,31.7798769 C47.3585172,31.6681846 47.4287738,31.5961846 47.4287738,30.6809538 L47.4287738,24.1548 C47.4287738,23.2672615 47.3704476,23.2252615 46.6899748,23.1394154 L46.6899748,22.7466462 C47.3350983,22.6621846 48.1560843,22.4503385 48.7194627,22.2523385 L48.7194627,30.6809538 C48.7194627,31.6248 48.8020915,31.6958769 49.529402,31.7798769 L49.529402,32.2031077 L46.6431371,32.2031077 Z" id="Fill-57"></path>
            <path d="M52.5108006,32.2031077 C52.3110774,32.3157231 52.1232846,32.3729538 52.0296091,32.3729538 C51.1852043,32.3729538 50.703571,31.8500308 50.703571,30.6251077 L50.703571,26.6355692 L49.9413531,26.6355692 L49.882585,26.4657231 L50.2104492,26.0018769 L50.703571,26.0018769 L50.703571,24.9731077 L51.8303278,23.9295692 L51.9827714,23.9997231 L51.9827714,26.0018769 L53.2027618,26.0018769 C53.3317865,26.1421846 53.3088095,26.5224923 53.1329471,26.6355692 L51.9827714,26.6355692 L51.9827714,30.1598769 C51.9827714,31.2731077 52.4051947,31.4281846 52.663686,31.4281846 C52.8978747,31.4281846 53.1095282,31.3423385 53.2968791,31.2454154 L53.4139735,31.6815692 L52.5108006,32.2031077 Z" id="Fill-59"></path>
            <path d="M59.7280094,31.8646154 C59.4226804,31.9218462 59.0943744,31.9915385 58.731161,32.0907692 C58.3904828,32.1756923 58.038316,32.2883077 57.732987,32.3732308 L57.6508001,32.2735385 L57.6508001,31.3726154 C57.4170533,31.5835385 57.2411908,31.7796923 56.9588388,31.9772308 C56.6181606,32.2310769 56.3256457,32.3732308 55.9849674,32.3732308 C55.0698641,32.3732308 54.4715784,31.6818462 54.4715784,30.3290769 L54.4715784,27.4818462 C54.4715784,26.7918462 54.3889495,26.7193846 54.0955509,26.6215385 L53.8021523,26.5370769 L53.8021523,26.1424615 C54.0845043,26.1290769 54.4128103,26.1009231 54.7883959,26.0584615 C55.1520511,26.016 55.5276367,25.9449231 55.7976165,25.9033846 C55.7737558,26.4387692 55.7627091,27.1292308 55.7627091,28.0029231 L55.7627091,29.9898462 C55.7627091,31.0329231 56.2081095,31.3569231 56.6539517,31.3569231 C57.0061184,31.3569231 57.3348663,31.2304615 57.6508001,30.8635385 L57.6508001,27.4818462 C57.6508001,26.7918462 57.569055,26.7069231 57.2288186,26.6215385 L56.8417445,26.5370769 L56.8417445,26.1424615 C57.1824227,26.1290769 57.5924738,26.1009231 57.9680594,26.0436923 C58.3551336,26.016 58.7073003,25.9449231 58.941489,25.9033846 L58.941489,30.5261538 C58.941489,31.2586154 59.0126293,31.3726154 59.4465411,31.4284615 L59.7280094,31.4561538 L59.7280094,31.8646154 Z" id="Fill-61"></path>
            <path d="M62.4400468,27.3258462 C62.8390513,26.4955385 63.3206846,25.8332308 63.801876,25.8332308 C64.2472764,25.8332308 64.5526054,26.2126154 64.5526054,26.6496923 C64.5526054,27.0586154 64.3290215,27.4250769 64.0484369,27.552 C63.8951096,27.6226154 63.7784572,27.5949231 63.7077587,27.5086154 C63.5080355,27.3124615 63.3679642,27.2132308 63.1801714,27.2132308 C62.9212383,27.2132308 62.63977,27.4818462 62.4170698,28.1298462 L62.4170698,30.7370769 C62.4170698,31.6246154 62.4762798,31.6961538 63.3794527,31.7796923 L63.3794527,32.2029231 L60.3517908,32.2029231 L60.3517908,31.7796923 C61.0207751,31.6961538 61.1263809,31.6246154 61.1263809,30.7370769 L61.1263809,27.7061538 C61.1263809,26.9183077 61.0556824,26.8610769 60.4569548,26.7193846 L60.4569548,26.3533846 C61.1148924,26.2421538 61.7485274,26.0727692 62.4170698,25.8050769 L62.4170698,27.3258462 L62.4400468,27.3258462 Z" id="Fill-63"></path>
            <path d="M67.3232341,26.3829231 C66.8535312,26.3829231 66.4081308,27.0161538 66.3020831,28.1298462 C66.8416008,28.1298462 67.3585834,28.1155385 67.898101,28.0883077 C68.0858939,28.0883077 68.1561505,28.0463077 68.167639,27.8187692 C68.167639,27.0867692 67.8512633,26.3829231 67.3347226,26.3829231 L67.3232341,26.3829231 Z M69.4004435,30.8921538 C68.6841796,32.0907692 67.8044256,32.3732308 67.3585834,32.3732308 C65.8447524,32.3732308 64.9879754,30.9766154 64.9879754,29.3561538 C64.9879754,28.3264615 65.3282118,27.4393846 65.8213336,26.8463077 C66.3259439,26.2126154 66.9715093,25.8332308 67.5808417,25.8332308 L67.5932139,25.8332308 C68.6373419,25.8332308 69.4468393,26.9183077 69.4468393,28.0463077 C69.4468393,28.3264615 69.3765827,28.4963077 69.1300218,28.5396923 C68.9188102,28.5803077 67.4756777,28.7086154 66.243315,28.7635385 C66.2786643,30.4269231 67.0528125,31.2027692 67.8866125,31.2027692 C68.3439433,31.2027692 68.7893436,31.0047692 69.2007203,30.5543077 L69.4004435,30.8921538 Z" id="Fill-65"></path>
            <path d="M75.6681719,28.8204462 C75.4330995,28.9755231 75.1158401,29.1730615 74.870163,29.3272154 C74.4707166,29.5538308 74.259505,29.8219846 74.259505,30.3149077 C74.259505,31.0755231 74.7053472,31.3856769 75.0106762,31.3856769 C75.221446,31.3856769 75.4565184,31.2582923 75.6681719,31.0616769 L75.6681719,28.8204462 Z M76.6535318,32.3729077 C76.383552,32.3729077 76.1489215,32.2450615 75.9964779,32.0909077 C75.8440344,31.9062923 75.7618474,31.7230615 75.7035211,31.5264462 C75.2448648,31.8933692 74.6938587,32.3729077 74.4243208,32.3729077 C73.4853567,32.3729077 72.8985595,31.4696769 72.8985595,30.5964462 C72.8985595,29.8769077 73.1919581,29.4966 73.8136627,29.2284462 C74.5069496,28.9330615 75.3977503,28.5799846 75.6681719,28.2998308 L75.6681719,27.9462923 C75.6681719,27.0162923 75.339424,26.4956769 74.8463022,26.4956769 C74.6704398,26.4956769 74.5179962,26.5801385 74.4119485,26.7495231 C74.2714353,26.9456769 74.1662713,27.2701385 74.072154,27.7062923 C74.0018974,28.0312154 73.849012,28.1299846 73.6258699,28.1299846 C73.356332,28.1299846 72.9807464,27.8189077 72.9807464,27.4529077 C72.9807464,27.2276769 73.1217015,27.0453692 73.379309,26.8335231 C73.7787554,26.4822923 74.587811,25.9879846 75.2567952,25.8329077 C75.6915908,25.8329077 76.0433157,25.9589077 76.3362724,26.2279846 C76.8064172,26.6636769 76.9235116,27.2701385 76.9235116,28.0312154 L76.9235116,30.4690615 C76.9235116,31.1189077 77.1117462,31.3007538 77.3101438,31.3007538 C77.4519826,31.3007538 77.5924958,31.2453692 77.710032,31.1742923 L77.8386149,31.5961385 L76.6535318,32.3729077 Z" id="Fill-67"></path>
            <path d="M81.6068432,32.2031077 L81.6068432,31.7798769 C82.1702216,31.6958769 82.2404782,31.6248 82.2404782,30.6251077 L82.2404782,28.2564923 C82.2404782,27.2563385 81.8768229,26.8335692 81.3368634,26.8335692 C80.9727663,26.8335692 80.6334136,27.0588 80.3165961,27.3689538 L80.3165961,30.7368 C80.3165961,31.6381846 80.3868527,31.6958769 80.9378589,31.7798769 L80.9378589,32.2031077 L78.2155261,32.2031077 L78.2155261,31.7798769 C78.9666973,31.6681846 79.0250235,31.6248 79.0250235,30.6943385 L79.0250235,27.7764923 C79.0250235,26.9037231 78.9666973,26.8612615 78.3684115,26.7191077 L78.3684115,26.3397231 C78.9901161,26.2423385 79.6820774,26.0434154 80.3165961,25.7895692 L80.3165961,26.8612615 C80.5507848,26.6637231 80.7854154,26.4523385 81.0668836,26.2423385 C81.40712,25.9732615 81.6656113,25.8329538 82.0058476,25.8329538 C82.9448117,25.8329538 83.5196786,26.6498769 83.5196786,28.0460308 L83.5196786,30.7234154 C83.5196786,31.6381846 83.5894933,31.6815692 84.2355006,31.7798769 L84.2355006,32.2031077 L81.6068432,32.2031077 Z" id="Fill-69"></path>
            <path d="M88.6960878,27.1293231 C88.4733876,26.6354769 88.097802,26.3964 87.710286,26.3964 C87.3342586,26.3964 86.4081086,26.8334769 86.4081086,28.9330154 C86.4081086,30.6531692 87.2525135,31.3722462 87.8751018,31.3722462 C88.1561283,31.3722462 88.4265499,31.2582462 88.6960878,31.0459385 L88.6960878,27.1293231 Z M90.819693,31.8360923 C90.5497132,31.8933231 89.5290041,32.0622462 88.6960878,32.3867077 L88.6960878,31.5264 L87.9798239,32.0622462 C87.6280991,32.3156308 87.4045152,32.3728615 87.2754905,32.3728615 C86.2905724,32.3728615 84.9530458,31.3722462 84.9530458,29.3128615 C84.9530458,27.3836308 86.360829,25.8328615 88.097802,25.8328615 C88.2144545,25.8328615 88.4265499,25.8600923 88.6960878,25.9320923 L88.6960878,24.1260923 C88.6960878,23.3105538 88.6258312,23.2542462 87.8627296,23.1550154 L87.8627296,22.7465538 C88.5670631,22.6477846 89.447259,22.4502462 89.985893,22.2527077 L89.985893,30.4828615 C89.985893,31.2582462 90.0570333,31.3164 90.5267362,31.3856308 L90.819693,31.4280923 L90.819693,31.8360923 Z" id="Fill-71"></path>
            <path d="M102.203825,23.4929077 C101.57019,23.5362923 101.312141,23.7329077 101.252931,24.3670615 C101.207419,24.7893692 101.160581,25.4526 101.160581,26.7190615 L101.160581,32.3442923 L100.666576,32.3442923 L95.7380086,25.1844462 L95.7154735,25.1844462 L95.7154735,28.4964462 C95.7154735,29.7504462 95.7623112,30.3846 95.7967767,30.8082923 C95.855103,31.4696769 96.0791287,31.6958308 96.9239754,31.7521385 L96.9239754,32.2030615 L94.0836645,32.2030615 L94.0836645,31.7521385 C94.7411602,31.6958308 95.0226285,31.4849077 95.0822804,30.8493692 C95.116304,30.3846 95.1759558,29.7504462 95.1759558,28.4964462 L95.1759558,25.4950615 C95.1759558,24.5359846 95.1631417,24.3389077 94.9408834,24.0153692 C94.705811,23.6622923 94.459692,23.5487538 93.9307791,23.4929077 L93.9307791,23.0424462 L95.9496622,23.0424462 L100.585272,29.5386 L100.619296,29.5386 L100.619296,26.7190615 C100.619296,25.4526 100.561412,24.7893692 100.537993,24.3818308 C100.466852,23.7749077 100.220733,23.5487538 99.3758866,23.4929077 L99.3758866,23.0424462 L102.203825,23.0424462 L102.203825,23.4929077 Z" id="Fill-73"></path>
            <path d="M105.433243,28.8204462 C105.199054,28.9755231 104.882237,29.1730615 104.635676,29.3272154 C104.235346,29.5538308 104.024576,29.8219846 104.024576,30.3149077 C104.024576,31.0755231 104.471744,31.3856769 104.776189,31.3856769 C104.987401,31.3856769 105.223357,31.2582923 105.433243,31.0616769 L105.433243,28.8204462 Z M106.419487,32.3729077 C106.149507,32.3729077 105.914876,32.2450615 105.761991,32.0909077 C105.609989,31.9062923 105.52736,31.7230615 105.46815,31.5264462 C105.010378,31.8933692 104.459813,32.3729077 104.190276,32.3729077 C103.251312,32.3729077 102.664072,31.4696769 102.664072,30.5964462 C102.664072,29.8769077 102.957471,29.4966 103.580501,29.2284462 C104.271579,28.9330615 105.163263,28.5799846 105.433243,28.2998308 L105.433243,27.9462923 C105.433243,27.0162923 105.104495,26.4956769 104.611815,26.4956769 C104.435511,26.4956769 104.282625,26.5801385 104.177461,26.7495231 C104.036948,26.9456769 103.932226,27.2701385 103.838551,27.7062923 C103.766968,28.0312154 103.614083,28.1299846 103.392267,28.1299846 C103.121845,28.1299846 102.747143,27.8189077 102.747143,27.4529077 C102.747143,27.2276769 102.887214,27.0453692 103.14438,26.8335231 C103.545152,26.4822923 104.352882,25.9879846 105.022308,25.8329077 C105.457104,25.8329077 105.808829,25.9589077 106.102227,26.2279846 C106.570605,26.6636769 106.689908,27.2701385 106.689908,28.0312154 L106.689908,30.4690615 C106.689908,31.1189077 106.876375,31.3007538 107.076099,31.3007538 C107.217054,31.3007538 107.357567,31.2453692 107.475987,31.1742923 L107.60457,31.5961385 L106.419487,32.3729077 Z" id="Fill-75"></path>
            <path d="M110.397778,32.2031077 C110.198938,32.3157231 110.010704,32.3729538 109.917028,32.3729538 C109.07174,32.3729538 108.59099,31.8500308 108.59099,30.6251077 L108.59099,26.6355692 L107.82833,26.6355692 L107.770446,26.4657231 L108.09831,26.0018769 L108.59099,26.0018769 L108.59099,24.9731077 L109.718189,23.9295692 L109.871074,23.9997231 L109.871074,26.0018769 L111.090181,26.0018769 C111.218764,26.1421846 111.195787,26.5224923 111.020366,26.6355692 L109.871074,26.6355692 L109.871074,30.1598769 C109.871074,31.2731077 110.292172,31.4281846 110.551105,31.4281846 C110.785736,31.4281846 110.996505,31.3423385 111.184298,31.2454154 L111.300951,31.6815692 L110.397778,32.2031077 Z" id="Fill-77"></path>
            <path d="M117.616489,31.8646154 C117.310276,31.9218462 116.981528,31.9915385 116.617431,32.0907692 C116.27852,32.1756923 115.925912,32.2883077 115.620583,32.3732308 L115.539721,32.2735385 L115.539721,31.3726154 C115.304207,31.5835385 115.128345,31.7796923 114.845993,31.9772308 C114.506198,32.2310769 114.2128,32.3732308 113.871679,32.3732308 C112.957902,32.3732308 112.35829,31.6818462 112.35829,30.3290769 L112.35829,27.4818462 C112.35829,26.7918462 112.276103,26.7193846 111.983589,26.6215385 L111.69019,26.5370769 L111.69019,26.1424615 C111.971658,26.1290769 112.299964,26.1009231 112.67555,26.0584615 C113.039647,26.016 113.415232,25.9449231 113.685654,25.9033846 C113.66091,26.4387692 113.648979,27.1292308 113.648979,28.0029231 L113.648979,29.9898462 C113.648979,31.0329231 114.095705,31.3569231 114.541106,31.3569231 C114.89283,31.3569231 115.221136,31.2304615 115.539721,30.8635385 L115.539721,27.4818462 C115.539721,26.7918462 115.456651,26.7069231 115.115531,26.6215385 L114.72934,26.5370769 L114.72934,26.1424615 C115.068693,26.1290769 115.480511,26.1009231 115.855655,26.0436923 C116.242729,26.016 116.594896,25.9449231 116.829085,25.9033846 L116.829085,30.5261538 C116.829085,31.2586154 116.900225,31.3726154 117.333695,31.4284615 L117.616489,31.4561538 L117.616489,31.8646154 Z" id="Fill-79"></path>
            <path d="M120.327245,27.3258462 C120.725807,26.4955385 121.207441,25.8332308 121.689074,25.8332308 C122.1358,25.8332308 122.43892,26.2126154 122.43892,26.6496923 C122.43892,27.0586154 122.216661,27.4250769 121.936077,27.552 C121.783191,27.6226154 121.664772,27.5949231 121.594957,27.5086154 C121.395234,27.3124615 121.255162,27.2132308 121.066928,27.2132308 C120.808878,27.2132308 120.52741,27.4818462 120.30471,28.1298462 L120.30471,30.7370769 C120.30471,31.6246154 120.364362,31.6961538 121.265767,31.7796923 L121.265767,32.2029231 L118.238989,32.2029231 L118.238989,31.7796923 C118.907531,31.6961538 119.012695,31.6246154 119.012695,30.7370769 L119.012695,27.7061538 C119.012695,26.9183077 118.943322,26.8610769 118.344153,26.7193846 L118.344153,26.3533846 C119.002532,26.2421538 119.635284,26.0727692 120.30471,25.8050769 L120.30471,27.3258462 L120.327245,27.3258462 Z" id="Fill-81"></path>
            <path d="M125.820339,28.8204462 C125.586592,28.9755231 125.269775,29.1730615 125.022772,29.3272154 C124.624209,29.5538308 124.412556,29.8219846 124.412556,30.3149077 C124.412556,31.0755231 124.858398,31.3856769 125.163727,31.3856769 C125.374497,31.3856769 125.608686,31.2582923 125.820339,31.0616769 L125.820339,28.8204462 Z M126.805699,32.3729077 C126.536603,32.3729077 126.302414,32.2450615 126.149971,32.0909077 C125.997085,31.9062923 125.914456,31.7230615 125.855688,31.5264462 C125.398358,31.8933692 124.84691,32.3729077 124.57693,32.3729077 C123.638849,32.3729077 123.05161,31.4696769 123.05161,30.5964462 C123.05161,29.8769077 123.345009,29.4966 123.966714,29.2284462 C124.658675,28.9330615 125.550359,28.5799846 125.820339,28.2998308 L125.820339,27.9462923 C125.820339,27.0162923 125.492033,26.4956769 124.998911,26.4956769 C124.823933,26.4956769 124.671047,26.5801385 124.564999,26.7495231 C124.424928,26.9456769 124.317997,27.2701385 124.224763,27.7062923 C124.154065,28.0312154 124.001179,28.1299846 123.778921,28.1299846 C123.509825,28.1299846 123.133355,27.8189077 123.133355,27.4529077 C123.133355,27.2276769 123.273869,27.0453692 123.53236,26.8335231 C123.931806,26.4822923 124.740862,25.9879846 125.408962,25.8329077 C125.843758,25.8329077 126.19725,25.9589077 126.489323,26.2279846 C126.958584,26.6636769 127.075237,27.2701385 127.075237,28.0312154 L127.075237,30.4690615 C127.075237,31.1189077 127.264355,31.3007538 127.463637,31.3007538 C127.60415,31.3007538 127.744221,31.2453692 127.862199,31.1742923 L127.991224,31.5961385 L126.805699,32.3729077 Z" id="Fill-83"></path>
            <path d="M128.321386,32.2031077 L128.321386,31.7798769 C129.036766,31.6681846 129.107464,31.5961846 129.107464,30.6809538 L129.107464,24.1548 C129.107464,23.2672615 129.049138,23.2252615 128.367782,23.1394154 L128.367782,22.7466462 C129.013347,22.6621846 129.835217,22.4503385 130.397711,22.2523385 L130.397711,30.6809538 C130.397711,31.6248 130.480782,31.6958769 131.208092,31.7798769 L131.208092,32.2031077 L128.321386,32.2031077 Z" id="Fill-85"></path>
            <path d="M137.345957,27.7211538 C137.885474,27.7211538 138.273874,27.6080769 138.54297,27.3403846 C138.953905,26.9314615 139.128884,26.3683846 139.128884,25.6363846 C139.128884,24.1262308 138.379038,23.5640769 137.628751,23.5640769 C137.323422,23.5640769 137.146675,23.6346923 137.065372,23.7048462 C136.983627,23.7883846 136.959766,23.9425385 136.959766,24.2693077 L136.959766,27.7211538 L137.345957,27.7211538 Z M141.722192,32.3296154 C141.629842,32.3296154 141.488445,32.3157692 141.359862,32.3157692 C140.09215,32.2451538 139.622889,31.8796154 139.128884,30.9768462 C138.789973,30.3574615 138.426318,29.5539231 138.085639,28.8348462 C137.898288,28.4125385 137.686635,28.2426923 137.229304,28.2426923 L136.959766,28.2426923 L136.959766,30.3703846 C136.959766,31.5265385 137.065372,31.653 137.968103,31.7517692 L137.968103,32.2031538 L134.589158,32.2031538 L134.589158,31.7517692 C135.493657,31.653 135.621798,31.5399231 135.621798,30.3703846 L135.621798,24.8596154 C135.621798,23.7048462 135.51575,23.5922308 134.635996,23.5073077 L134.635996,23.0425385 L137.791357,23.0425385 C138.755066,23.0425385 139.342305,23.1819231 139.810682,23.5488462 C140.279501,23.9296154 140.596319,24.5494615 140.596319,25.4231538 C140.596319,26.6499231 139.928218,27.3403846 139.118279,27.7497692 C139.306514,28.1859231 139.752798,29.1288462 140.103197,29.7653077 C140.526504,30.5402308 140.772181,30.9620769 141.031114,31.2731538 C141.30021,31.6382308 141.523352,31.8076154 141.793774,31.9059231 L141.722192,32.3296154 Z" id="Fill-87"></path>
            <path d="M144.541779,26.3829231 C144.072518,26.3829231 143.627118,27.0161538 143.520628,28.1298462 C144.060588,28.1298462 144.577128,28.1155385 145.116204,28.0883077 C145.304881,28.0883077 145.374696,28.0463077 145.385742,27.8187692 C145.385742,27.0867692 145.069808,26.3829231 144.552826,26.3829231 L144.541779,26.3829231 Z M146.618105,30.8921538 C145.903167,32.0907692 145.023413,32.3732308 144.577128,32.3732308 C143.063739,32.3732308 142.206521,30.9766154 142.206521,29.3561538 C142.206521,28.3264615 142.547199,27.4393846 143.040321,26.8463077 C143.544931,26.2126154 144.189171,25.8332308 144.799829,25.8332308 L144.810875,25.8332308 C145.855445,25.8332308 146.665826,26.9183077 146.665826,28.0463077 C146.665826,28.3264615 146.59557,28.4963077 146.349009,28.5396923 C146.136913,28.5803077 144.694223,28.7086154 143.463186,28.7635385 C143.497651,30.4269231 144.271358,31.2027692 145.105158,31.2027692 C145.56293,31.2027692 146.007889,31.0047692 146.418824,30.5543077 L146.618105,30.8921538 Z" id="Fill-89"></path>
            <path d="M150.574303,27.7635231 C150.291951,26.9036769 149.905318,26.3396769 149.34194,26.3396769 C148.977843,26.3396769 148.685328,26.6932154 148.685328,27.1870615 C148.685328,27.6776769 149.025123,28.0164462 149.600873,28.3127538 C150.527465,28.7922923 151.14917,29.2856769 151.14917,30.3421385 C151.14917,31.6962923 150.080739,32.3729077 149.108193,32.3729077 C148.497535,32.3729077 147.899691,32.1042923 147.675224,31.8933692 C147.593479,31.6815231 147.488315,30.6947538 147.488315,30.0753692 L147.817062,30.0319846 C148.063623,30.9352154 148.602699,31.8499846 149.307916,31.8499846 C149.705153,31.8499846 150.022855,31.4987538 150.022855,31.0044462 C150.022855,30.5258308 149.788224,30.1879846 149.11924,29.7929077 C148.520512,29.4550615 147.628828,28.9330615 147.628828,27.7635231 C147.628828,26.7070615 148.357022,25.8329077 149.542105,25.8329077 C150.058204,25.8186 150.374138,25.9450615 150.632629,26.0729077 C150.750165,26.3964462 150.878748,27.3402923 150.914097,27.6504462 L150.574303,27.7635231 Z" id="Fill-91"></path>
            <path d="M154.58865,26.3396769 C154.025714,26.3396769 153.497242,27.1436769 153.497242,28.7502923 C153.497242,30.4981385 154.025714,31.8499846 154.846699,31.8499846 C155.399031,31.8499846 155.914688,31.3995231 155.914688,29.3692154 C155.914688,27.5230615 155.445869,26.3396769 154.599255,26.3396769 L154.58865,26.3396769 Z M154.763629,25.8329077 C156.324297,25.8329077 157.38124,27.2853692 157.38124,28.9898308 C157.38124,31.2582923 156.008806,32.3729077 154.718117,32.3729077 C152.958167,32.3729077 152.031133,30.7926 152.031133,29.2432154 C152.031133,26.9456769 153.533034,25.8329077 154.75214,25.8329077 L154.763629,25.8329077 Z" id="Fill-93"></path>
            <path d="M164.024863,31.8646154 C163.719976,31.9218462 163.390344,31.9915385 163.027573,32.0907692 C162.686894,32.1756923 162.334286,32.2883077 162.030282,32.3732308 L161.947654,32.2735385 L161.947654,31.3726154 C161.712581,31.5835385 161.537161,31.7796923 161.253925,31.9772308 C160.91413,32.2310769 160.621174,32.3732308 160.281379,32.3732308 C159.365392,32.3732308 158.768432,31.6818462 158.768432,30.3290769 L158.768432,27.4818462 C158.768432,26.7918462 158.685803,26.7193846 158.391521,26.6215385 L158.099448,26.5370769 L158.099448,26.1424615 C158.380474,26.1290769 158.708338,26.1009231 159.083482,26.0584615 C159.448905,26.016 159.824048,25.9449231 160.094912,25.9033846 C160.070609,26.4387692 160.057795,27.1292308 160.057795,28.0029231 L160.057795,29.9898462 C160.057795,31.0329231 160.504079,31.3569231 160.94948,31.3569231 C161.30253,31.3569231 161.631278,31.2304615 161.947654,30.8635385 L161.947654,27.4818462 C161.947654,26.7918462 161.864583,26.7069231 161.524788,26.6215385 L161.137714,26.5370769 L161.137714,26.1424615 C161.478392,26.1290769 161.888444,26.1009231 162.263587,26.0436923 C162.651103,26.016 163.003712,25.9449231 163.238784,25.9033846 L163.238784,30.5261538 C163.238784,31.2586154 163.308157,31.3726154 163.742069,31.4284615 L164.024863,31.4561538 L164.024863,31.8646154 Z" id="Fill-95"></path>
            <path d="M166.736061,27.3258462 C167.134623,26.4955385 167.616257,25.8332308 168.097006,25.8332308 C168.544174,25.8332308 168.848619,26.2126154 168.848619,26.6496923 C168.848619,27.0586154 168.625035,27.4250769 168.344009,27.552 C168.191124,27.6226154 168.074471,27.5949231 168.004656,27.5086154 C167.804491,27.3124615 167.663978,27.2132308 167.476627,27.2132308 C167.217252,27.2132308 166.936226,27.4818462 166.712642,28.1298462 L166.712642,30.7370769 C166.712642,31.6246154 166.772294,31.6961538 167.675025,31.7796923 L167.675025,32.2029231 L164.648247,32.2029231 L164.648247,31.7796923 C165.317231,31.6961538 165.421511,31.6246154 165.421511,30.7370769 L165.421511,27.7061538 C165.421511,26.9183077 165.351255,26.8610769 164.753852,26.7193846 L164.753852,26.3533846 C165.409581,26.2421538 166.044983,26.0727692 166.712642,25.8050769 L166.712642,27.3258462 L166.736061,27.3258462 Z" id="Fill-97"></path>
            <path d="M173.75496,30.8775231 C173.226931,31.7521385 172.452783,32.3729077 171.74845,32.3729077 C170.187339,32.3729077 169.271794,30.9199846 169.271794,29.3996769 C169.271794,28.3422923 169.694659,27.3689077 170.456435,26.6784462 C171.161652,26.0433692 171.913265,25.8329077 172.357782,25.8329077 L172.369712,25.8329077 C172.80495,25.8329077 173.191582,25.9879846 173.390863,26.1855231 C173.554795,26.3396769 173.602075,26.4822923 173.602075,26.6636769 C173.590145,27.0301385 173.307793,27.3836769 173.132814,27.3836769 C173.062999,27.3836769 172.990975,27.3402923 172.886695,27.2276769 C172.452783,26.7615231 172.065267,26.5515231 171.70117,26.5515231 C171.126303,26.5515231 170.551436,27.1718308 170.551436,28.6787538 C170.551436,30.5816769 171.665379,31.2029077 172.230083,31.2029077 C172.722763,31.2029077 173.074046,31.0459846 173.543307,30.5544462 L173.75496,30.8775231 Z" id="Fill-99"></path>
            <path d="M176.678033,26.3829231 C176.208772,26.3829231 175.761604,27.0161538 175.655998,28.1298462 C176.196399,28.1298462 176.713382,28.1155385 177.2529,28.0883077 C177.439367,28.0883077 177.510949,28.0463077 177.521996,27.8187692 C177.521996,27.0867692 177.205178,26.3829231 176.689079,26.3829231 L176.678033,26.3829231 Z M178.754358,30.8921538 C178.038978,32.0907692 177.159666,32.3732308 176.713382,32.3732308 C175.198667,32.3732308 174.342774,30.9766154 174.342774,29.3561538 C174.342774,28.3264615 174.683452,27.4393846 175.17569,26.8463077 C175.680301,26.2126154 176.325866,25.8332308 176.936082,25.8332308 L176.947129,25.8332308 C177.991699,25.8332308 178.80208,26.9183077 178.80208,28.0463077 C178.80208,28.3264615 178.731823,28.4963077 178.485262,28.5396923 C178.273609,28.5803077 176.830918,28.7086154 175.598555,28.7635385 C175.633905,30.4269231 176.408937,31.2027692 177.241411,31.2027692 C177.697416,31.2027692 178.144142,31.0047692 178.555077,30.5543077 L178.754358,30.8921538 Z" id="Fill-101"></path>
            <path d="M182.710512,27.7635231 C182.42816,26.9036769 182.040644,26.3396769 181.479033,26.3396769 C181.114052,26.3396769 180.821537,26.6932154 180.821537,27.1870615 C180.821537,27.6776769 181.161332,28.0164462 181.737082,28.3127538 C182.663232,28.7922923 183.285379,29.2856769 183.285379,30.3421385 C183.285379,31.6962923 182.217832,32.3729077 181.244403,32.3729077 C180.633303,32.3729077 180.035017,32.1042923 179.811433,31.8933692 C179.728804,31.6815231 179.624524,30.6947538 179.624524,30.0753692 L179.953272,30.0319846 C180.199833,30.9352154 180.73935,31.8499846 181.443684,31.8499846 C181.841363,31.8499846 182.15818,31.4987538 182.15818,31.0044462 C182.15818,30.5258308 181.924433,30.1879846 181.255449,29.7929077 C180.656722,29.4550615 179.765037,28.9330615 179.765037,27.7635231 C179.765037,26.7070615 180.492348,25.8329077 181.677431,25.8329077 C182.194413,25.8186 182.510347,25.9450615 182.76928,26.0729077 C182.885491,26.3964462 183.014957,27.3402923 183.050748,27.6504462 L182.710512,27.7635231 Z" id="Fill-103"></path>
            <polygon id="Fill-106" points="0 35.7127846 5.82422811 35.7127846 5.82422811 0 0 0"></polygon>
        </g>
    </g>
</svg>