<?xml version="1.0" encoding="UTF-8"?>
<svg width="152px" height="26px" viewBox="0 0 152 26" version="1.1" xmlns="http://www.w3.org/2000/svg" xmlns:xlink="http://www.w3.org/1999/xlink">
    <!-- Generator: Sketch 43.2 (39069) - http://www.bohemiancoding.com/sketch -->
    <title>ucdavis_homepage_white</title>
    <desc>Created with Sketch.</desc>
    <defs></defs>
    <g id="Page-1" stroke="none" stroke-width="1" fill="none" fill-rule="evenodd">
        <g id="ucdavis_homepage_white" fill="#FFFFFF">
            <path d="M133.00782,23.4072621 L135.435427,16.8660207 L135.853646,17.2380897 C137.341138,18.4762276 139.36019,19.5296759 141.264143,19.5718138 C142.968652,19.6112621 143.79982,19.1486414 143.573138,17.6774 C143.406201,16.5791241 142.189323,16.385469 141.430201,16.2330552 L139.764351,15.8941586 C136.524906,15.2755379 133.797692,13.2340897 133.797692,9.36995172 C133.797692,3.52264138 138.734617,0.246641379 143.700536,0.246641379 C146.308259,0.246641379 148.703357,0.924434483 150.942941,2.41091724 L148.839542,8.20891724 C147.684166,7.35988276 145.938363,6.16567586 143.727773,6.08408966 C143.001161,6.0554 141.333554,6.4454 141.86775,8.16946897 C142.098825,8.90374483 143.130317,9.21215862 143.763797,9.36995172 L145.645785,9.83257241 C149.155843,10.6681586 151.697669,12.7069172 151.697669,16.8821586 C151.697669,22.7572621 146.729993,25.6656759 141.79834,25.6656759 C138.917369,25.6656759 135.584791,24.8282966 133.00782,23.4072621 Z" id="Fill-1"></path>
            <polygon id="Fill-3" points="122.767676 25.2955793 131.222566 25.2955793 131.222566 0.64757931 122.767676 0.64757931"></polygon>
            <polygon id="Fill-5" points="113.235607 0.647668966 121.894335 0.647668966 113.049341 25.295669 106.023954 25.295669 97.2079538 0.647668966 105.836809 0.647668966 109.537526 15.5214621"></polygon>
            <path d="M89.2994728,7.76144828 L89.2994728,7.76144828 C89.4541087,8.81131034 90.9662012,16.354 90.9662012,16.354 L87.6432879,16.354 L89.2994728,7.76144828 Z M76.6984092,25.2962069 L85.4827792,25.2962069 L86.1514035,22.2004138 L92.4176694,22.2004138 L93.2505942,25.2962069 L102.040236,25.2962069 L93.813785,0.647310345 L84.5980162,0.647310345 L76.6984092,25.2962069 Z" id="Fill-6"></path>
            <path d="M54.9794543,0.647668966 L63.6381827,0.647668966 C71.3664601,0.647668966 77.2707376,4.26794483 77.2707376,13.3284966 C77.2707376,20.6264276 72.4594543,25.295669 65.7002867,25.295669 L54.9794543,25.2822207 L54.9794543,0.647668966 Z M63.4896971,18.2191862 L64.0572809,18.2191862 C66.8433618,18.2191862 68.9089803,16.5121517 68.9089803,13.2953241 C68.9089803,9.83284138 67.0788301,7.90077241 64.018622,7.90077241 L63.4896971,7.90077241 L63.4896971,18.2191862 Z" id="Fill-7"></path>
            <path d="M49.9232139,1.42076552 L50.3748208,5.4660069 C50.4802543,6.42621379 51.0179653,8.72945517 50.3528555,8.42104138 C49.9390289,8.23097241 49.5963699,7.18648966 49.258104,6.25855862 C49.0850173,5.78697241 48.2617572,3.56083448 48.0464971,3.39766207 C47.005341,2.60331724 44.4099191,1.70766207 42.6544509,1.6995931 C37.3283006,1.67897241 33.8059422,5.68745517 33.8059422,12.8015931 C33.8059422,17.903869 36.2001618,24.023731 42.2898266,24.023731 C44.4705434,24.023731 48.650104,23.3235241 49.7861503,20.1551103 C50.3010173,18.7215241 50.7719538,17.4466276 51.1119769,17.8348345 C51.365896,18.1163517 51.0364162,19.2648345 50.8844162,19.8834552 C50.165711,22.8187655 50.1279306,23.7099379 49.9012486,23.8229034 C47.1503121,25.2349724 43.6209249,25.6975931 40.5326012,25.6975931 C30.714104,25.6975931 27.3235376,19.8520759 27.3235376,14.0074552 C27.3235376,3.86566207 33.4290173,-0.407303448 42.8916763,0.0302137931 C45.285896,0.121662069 47.6818728,0.556489655 49.9232139,1.42076552" id="Fill-8"></path>
            <path d="M20.9306636,1.86993793 L19.3579468,1.31048966 C18.8316578,0.825455172 19.4748023,0.690075862 19.4748023,0.690075862 C19.4748023,0.690075862 21.7468948,1.12042069 27.4077965,0.630903448 C27.4077965,0.630903448 27.898941,0.73042069 27.5597965,1.13745517 L25.7024092,1.94883448 C24.4925595,2.48766207 24.4925595,2.17924828 24.4925595,3.53214483 L24.4820162,16.093731 C24.4820162,25.9172483 14.6889988,25.6975931 12.7832879,25.6975931 C11.8721665,25.6975931 2.89098728,25.6975931 2.89098728,17.8106276 L2.89098728,4.51386897 C2.89098728,2.19538621 3.13436301,2.25635172 2.37963468,1.9855931 L0.108420809,1.11504138 C0.108420809,1.11504138 -0.278168786,0.558282759 0.408906358,0.594144828 C2.26629364,0.690075862 4.95309133,1.09621379 11.2755884,0.630903448 C11.2755884,0.630903448 11.8256,0.76717931 11.4636116,1.17331724 L9.57283699,1.71573103 C8.13454798,2.3738 8.32432832,1.86993793 8.28566936,3.37793793 L8.33223584,16.4900069 C8.33223584,19.7041448 9.9532763,23.6848345 15.0527445,23.6848345 C21.9929064,23.6848345 22.0579237,17.5578 22.0579237,16.1959379 L22.0711029,3.2075931 C22.1449064,1.9855931 21.9929064,2.33345517 20.9306636,1.86993793" id="Fill-9"></path>
        </g>
    </g>
</svg>