<?xml version="1.0" encoding="UTF-8"?>
<svg width="320px" height="34px" viewBox="0 0 320 34" version="1.1" xmlns="http://www.w3.org/2000/svg" xmlns:xlink="http://www.w3.org/1999/xlink">
    <!-- Generator: Sketch 42 (36781) - http://www.bohemiancoding.com/sketch -->
    <title>Group 2</title>
    <desc>Created with Sketch.</desc>
    <defs></defs>
    <g id="Page-1" stroke="none" stroke-width="1" fill="none" fill-rule="evenodd" fill-opacity="0.4">
        <g id="Group-2" fill="#000000">
            <g id="Imported-Layers" transform="translate(0.000000, 5.037037)" fill-rule="nonzero">
                <path d="M116.25,20.7653632 L118.360697,15.256265 L118.724321,15.5696252 C120.016865,16.6123972 121.773105,17.4996218 123.428509,17.5343557 C124.910504,17.5675794 125.633167,17.1787108 125.436077,15.9396167 C125.290934,15.0146379 124.232912,14.8515396 123.572889,14.7231753 L122.124506,14.4377532 C119.307952,13.9167448 116.93676,12.1974168 116.93676,8.94300155 C116.93676,4.0183389 121.228434,1.25925926 125.546845,1.25925926 C127.814145,1.25925926 129.896577,1.83010332 131.843797,3.08203381 L130.01422,7.96516682 C129.010436,7.25010157 127.492537,6.24357362 125.570527,6.17561599 C124.938769,6.15145327 123.488095,6.47991513 123.953319,7.93194309 C124.154229,8.55035749 125.050301,8.81010663 125.601847,8.94300155 L127.238154,9.33262528 C130.289994,10.0363643 132.5,11.7534269 132.5,15.2691014 C132.5,20.2179269 128.180825,22.6666667 123.89297,22.6666667 C121.387328,22.6666667 118.489799,21.9621726 116.25,20.7653632" id="Fill-1"></path>
                <polygon id="Fill-2" points="107.5 1.25925926 115 1.25925926 115 22.6666667 107.5 22.6666667"></polygon>
                <polyline id="Fill-3" points="98.7965798 1.25925926 106.25 1.25925926 98.6362423 22.6666667 92.5887995 22.6666667 85 1.25925926 92.4277058 1.25925926 95.6132772 14.1775224 98.7965798 1.25925926"></polyline>
                <path d="M66.25,22.6666667 L74.0492927,22.6666667 L74.6429376,19.9786712 L80.2065059,19.9786712 L80.9460268,22.6666667 L88.75,22.6666667 L81.4452814,1.25925926 L73.2637469,1.25925926 L66.25,22.6666667 L66.25,22.6666667 Z M77.4379833,7.43806683 L77.4379833,7.43806683 C77.5752782,8.34989842 78.917805,14.9009139 78.917805,14.9009139 L75.9675225,14.9009139 L77.4379833,7.43806683 L77.4379833,7.43806683 Z" id="Fill-4"></path>
                <path d="M55.1354894,16.5205636 L55.6447321,16.5205636 C58.1444365,16.5205636 59.9985219,15.0379612 59.9985219,12.2448443 C59.9985219,9.23681233 58.3557014,7.55876188 55.6100469,7.55876188 L55.1354894,7.55876188 L55.1354894,16.5205636 L55.1354894,16.5205636 Z M47.5,1.25925926 L55.2695006,1.25925926 C62.2034015,1.25925926 67.5,4.40355983 67.5,12.2728767 C67.5,18.6113131 63.1832604,22.6666667 57.1188561,22.6666667 L47.5,22.6549865 L47.5,1.25925926 L47.5,1.25925926 Z" id="Fill-5"></path>
                <path d="M43.8593246,1.2526243 L44.2611828,4.82070876 C44.3550017,5.66765434 44.8334787,7.70000741 44.242419,7.42718181 C43.8733975,7.25953245 43.5684856,6.33825178 43.2682649,5.52056576 C43.1134635,5.10381475 42.3816751,3.14026118 42.190128,2.99712658 C41.2628834,2.2964788 38.9533719,1.50647073 37.3912851,1.49856274 C32.6518611,1.48037437 29.518306,5.01603608 29.518306,11.2918158 C29.518306,15.7914613 31.6479976,21.1894544 37.0668278,21.1894544 C39.0073177,21.1894544 42.72646,20.5718405 43.7373599,17.7771573 C44.1955095,16.5126699 44.6145678,15.3881539 44.917134,15.7305698 C45.1430815,15.9788806 44.8498971,16.9926848 44.7146414,17.5375453 C44.0758903,20.1274115 44.0422717,20.9134656 43.839779,21.0131063 C41.3918845,22.2578236 38.2520746,22.6666667 35.5039593,22.6666667 C26.7662814,22.6666667 23.75,17.5098673 23.75,12.3554403 C23.75,3.40913279 29.1821211,-0.359814579 37.602378,0.0268860645 C39.7328515,0.10675675 41.8656705,0.491084997 43.8593246,1.2526243" id="Fill-6"></path>
                <path d="M17.9593782,2.34777668 L16.609897,1.87073652 C16.1590646,1.45714882 16.7101656,1.34171122 16.7101656,1.34171122 C16.7101656,1.34171122 18.6597514,1.70942967 23.51713,1.29201953 C23.51713,1.29201953 23.9385601,1.37611315 23.6475547,1.72319044 L22.0538099,2.41505157 C21.0156894,2.875273 21.0156894,2.61152484 21.0156894,3.76513636 L21.0066425,14.4771341 C21.0066425,22.8536228 12.6044255,22.6663235 10.9684622,22.6663235 C10.1874217,22.6663235 2.48030062,22.6663235 2.48030062,15.9411275 L2.48030062,4.60301458 C2.48030062,2.62605009 2.68913096,2.67727075 2.04153075,2.44639555 L0.0926989044,1.70484275 C0.0926989044,1.70484275 -0.238263255,1.23009606 0.35053275,1.26067555 C1.94427764,1.34171122 4.25045815,1.68802403 9.67476961,1.29201953 C9.67476961,1.29201953 10.1467111,1.40745714 9.83610425,1.75376994 L8.21446505,2.21628484 C6.97957664,2.77818309 7.14317296,2.34777668 7.11000136,3.63364452 L7.14920416,14.8142731 C7.14920416,17.5549606 8.54014991,20.9492847 12.9157862,20.9492847 C18.8708435,20.9492847 18.927386,15.7255421 18.927386,14.5642857 L18.9379406,3.4891564 C19.0012681,2.44639555 18.8708435,2.74301667 17.9593782,2.34777668" id="Fill-7"></path>
            </g>
            <g id="ANR" transform="translate(143.750000, 0.000000)">
                <path d="M14.2788407,7.58051795 C14.2788407,11.1679538 15.6166419,11.7472615 16.7709732,11.7472615 C18.1266117,11.7472615 19.2643798,11.0908 19.2643798,7.40790256 L19.2643798,1.62005641 C19.2643798,1.25303077 19.3977352,1.17674872 19.6317443,1.13838974 C20.117175,1.08041538 20.769937,1.0608 21.1037503,1.0608 C21.0706238,1.83190256 21.0536358,2.96959487 21.0536358,4.57108205 L21.0536358,7.31069744 C21.0536358,12.7123385 18.5780666,13.4830051 16.5369642,13.4830051 C13.710169,13.4830051 12.1876238,11.8048 12.1876238,7.65810769 L12.1876238,3.70321026 C12.1876238,2.41033846 12.1706358,1.62005641 12.1370846,1.21467179 C12.4381961,1.15626154 13.5929521,1.0608 13.9276148,1.0608 C14.2283015,1.0608 14.2788407,1.23428718 14.2788407,2.17931282 L14.2788407,7.58051795 Z" id="Fill-1"></path>
                <path d="M28.0960762,7.98577179 C28.0960762,6.86725897 27.5766696,6.23041282 26.841516,6.23041282 C26.1887539,6.23041282 25.7700009,6.57782308 25.4022117,6.94354103 L25.4022117,12.7126436 C25.4022117,13.0591821 25.3516726,13.1550795 25.0174346,13.1934385 C24.448763,13.2897718 23.929781,13.310259 23.3279828,13.310259 C23.3611093,12.2867718 23.378522,11.1111564 23.378522,9.79910513 L23.378522,6.63448974 C23.378522,6.05648974 23.3114196,5.76792564 23.0604226,5.59443846 L23.0604226,5.45887436 C23.2277539,4.97720769 23.7964256,4.47461795 24.3149828,4.47461795 C24.9507569,4.47461795 25.2017539,5.16943846 25.3024075,5.76792564 C25.9878714,5.07223333 26.7905521,4.47461795 27.6272087,4.47461795 C29.7515521,4.47461795 30.1201907,6.50023333 30.1201907,8.00451538 L30.1201907,10.4350795 C30.1201907,11.4380795 30.1367539,12.4990538 30.1868684,13.1550795 C29.802516,13.1934385 29.132766,13.310259 28.4298895,13.310259 C28.1793172,13.310259 28.0960762,13.1934385 28.0960762,12.9423615 L28.0960762,7.98577179 Z" id="Fill-3"></path>
                <path d="M34.4350455,12.7303846 C34.4350455,13.0777949 34.3182533,13.175 33.9500395,13.2316667 C33.6149521,13.289641 33.0131539,13.3101282 32.3603919,13.3101282 C32.3769551,12.5194103 32.4105063,11.3987179 32.4105063,10.2810769 L32.4105063,6.98176923 C32.4105063,5.80615385 32.3769551,5.20853846 32.3438286,4.82102564 C32.728181,4.68676923 33.7827081,4.5904359 34.133934,4.5904359 C34.3683678,4.5904359 34.4350455,4.68676923 34.4350455,5.80615385 L34.4350455,12.7303846 Z M33.4650334,0.424128205 C34.1003828,0.424128205 34.4855846,0.964641026 34.4855846,1.67820513 C34.4855846,2.41007692 34.0337051,2.99069231 33.397931,2.99069231 C32.8793738,2.99069231 32.3438286,2.62323077 32.3438286,1.73574359 C32.3438286,0.790717949 33.0297172,0.424128205 33.4480455,0.424128205 L33.4650334,0.424128205 Z" id="Fill-5"></path>
                <path d="M37.5298681,4.47474872 C37.7473139,4.47474872 37.8802446,4.6482359 37.9643349,4.91849231 C38.3495367,6.2113641 39.0010247,8.3712359 39.604097,10.6675436 C40.2729976,8.44795385 41.0425518,6.05662051 41.4608801,4.47474872 C41.9293229,4.47474872 42.3306633,4.57108205 42.7324283,4.78292821 C43.0832295,4.95641538 42.9999886,5.38141538 42.7655548,6.07710769 C42.063103,8.0818 41.1092295,10.7059026 40.406353,12.7302103 C40.3065488,13.0392615 40.1562054,13.1552103 39.9052084,13.2319282 C39.4860307,13.347441 38.9182084,13.4250308 38.5831211,13.4250308 C38.0310127,11.5349795 37.4126512,9.72077436 36.6596602,7.44669744 C36.3245729,6.42364615 36.0740006,5.6512359 35.7894524,4.95641538 C36.1746542,4.70621026 37.0610006,4.47474872 37.5128801,4.47474872 L37.5298681,4.47474872 Z" id="Fill-7"></path>
                <path d="M47.1984334,5.82585641 C46.5787979,5.82585641 45.9098973,6.50018974 45.8427949,7.94736923 C46.5291081,8.00447179 47.8167949,7.98572821 48.2177105,7.94736923 C48.3357768,7.94736923 48.4360057,7.75426667 48.4360057,7.54242051 C48.452569,6.59739487 48.0677919,5.82585641 47.214572,5.82585641 L47.1984334,5.82585641 Z M50.0082407,11.2846 C50.0082407,12.1328564 49.4230057,12.9244462 49.1380328,13.0778821 C48.8878852,13.2130103 48.1680208,13.4252923 47.5823611,13.4252923 C45.1399184,13.4252923 43.8016925,11.8817795 43.8016925,9.04583077 C43.8016925,6.7120359 45.1233551,4.47457436 47.3819033,4.47457436 C49.5066714,4.47457436 50.3254907,6.24911282 50.343328,7.79349744 C50.343328,8.06418974 50.3254907,8.2751641 50.2927889,8.42947179 C50.2422497,8.71890769 49.5733491,8.9896 48.8878852,9.18183077 C48.4691322,9.29865128 46.729566,9.31652308 45.8092437,9.27729231 C45.8929093,10.9764205 46.963575,11.6899846 48.1013431,11.6899846 C48.9044485,11.6899846 49.690566,11.3988051 49.9755389,11.2458051 L50.0082407,11.2846 Z" id="Fill-9"></path>
                <path d="M51.5963593,5.47766154 C51.7305642,5.03391795 52.3659136,4.47466154 52.8177931,4.47466154 C53.5542208,4.47466154 53.8549075,5.28543077 53.8714708,6.48153333 C54.3569015,5.16948205 55.0593533,4.47466154 55.9461244,4.47466154 C56.2642238,4.47466154 56.5818985,4.64858462 56.7322419,4.80332821 C56.8163322,5.01473846 56.799769,5.57312308 56.632013,5.94058462 C56.5649105,6.34684103 56.2302479,6.80845641 55.9792509,6.84768718 C55.645013,6.69425128 55.4611184,6.65502051 55.1774196,6.65502051 C54.9090099,6.65502051 54.4240039,6.88648205 54.1555943,7.69550769 C54.0553654,8.00455897 54.0052509,8.21640513 54.0052509,8.64140513 L54.0052509,12.6725846 C54.0052509,12.9816359 53.9721244,13.1363795 53.6378864,13.2130974 C53.0526515,13.2898154 52.5328202,13.3103026 51.931022,13.3103026 C51.9641485,12.2868154 51.9811364,11.1112 51.9811364,9.79914872 L51.9811364,6.5386359 C51.9811364,6.09489231 51.8809075,5.74748205 51.5963593,5.55525128 L51.5963593,5.47766154 Z" id="Fill-11"></path>
                <path d="M60.4287777,4.47474872 C61.098103,4.47474872 61.7504404,4.66785128 62.3021241,5.15082564 C62.319112,5.6512359 62.1186542,6.40403077 61.5329946,6.34692821 C61.1979072,6.17300513 60.7795789,6.03787692 60.3786633,6.03787692 C59.8762446,6.03787692 59.5250187,6.34692821 59.5250187,6.80854359 C59.5250187,7.21349231 59.7934283,7.44669744 60.1438048,7.67685128 C60.4623289,7.88956923 61.1312295,8.23697949 61.5164313,8.46844103 C62.3522386,9.00808205 62.6869012,9.74126154 62.6869012,10.5899538 C62.6869012,12.4987487 61.2153199,13.4250308 59.6931994,13.4250308 C59.0400127,13.4250308 58.3379855,13.2131846 57.886106,12.8853897 C57.6682355,12.7123385 57.5178922,12.4808769 57.5178922,12.1905692 C57.5348801,11.7860564 57.71835,11.3614923 57.9532084,11.1496462 C58.4382145,11.4957487 59.1580789,11.843159 59.8261301,11.843159 C60.4287777,11.843159 60.7795789,11.5153641 60.7795789,11.0345692 C60.7795789,10.6862872 60.613097,10.4352103 60.1276663,10.1466462 C59.7097627,9.87595385 59.273597,9.64492821 58.8561181,9.3733641 C58.1706542,8.93092821 57.6852235,8.19774872 57.6852235,7.17600513 C57.6852235,5.45900513 58.9733349,4.47474872 60.4117898,4.47474872 L60.4287777,4.47474872 Z" id="Fill-13"></path>
                <path d="M66.2837178,12.7303846 C66.2837178,13.0777949 66.1665009,13.175 65.7978623,13.2316667 C65.4636244,13.289641 64.8614015,13.3101282 64.2086395,13.3101282 C64.2256274,12.5194103 64.2591786,11.3987179 64.2591786,10.2810769 L64.2591786,6.98176923 C64.2591786,5.80615385 64.2256274,5.20853846 64.1920762,4.82102564 C64.5768533,4.68676923 65.6313804,4.5904359 65.9821816,4.5904359 C66.2161907,4.5904359 66.2837178,4.68676923 66.2837178,5.80615385 L66.2837178,12.7303846 Z M65.313281,0.424128205 C65.9486304,0.424128205 66.3334075,0.964641026 66.3334075,1.67820513 C66.3334075,2.41007692 65.881528,2.99069231 65.2466033,2.99069231 C64.7271967,2.99069231 64.1920762,2.62323077 64.1920762,1.73574359 C64.1920762,0.790717949 64.8779648,0.424128205 65.2962931,0.424128205 L65.313281,0.424128205 Z" id="Fill-15"></path>
                <path d="M73.0743542,11.4576077 C73.1575952,11.9205308 73.0917669,12.5194538 72.789806,12.8080179 C72.3888904,13.2129667 71.6860139,13.4252487 70.9500108,13.4252487 C69.2431464,13.4252487 68.6914627,12.1720436 68.6914627,10.8403769 L68.6914627,6.23032564 C68.0726765,6.23032564 67.7550018,5.88204359 67.7550018,5.68981282 C67.9885861,5.13012051 69.3442247,3.74265897 69.6283482,3.47283846 C69.9128964,3.20214615 70.2305711,2.96937692 70.8829084,2.89309487 C70.8162307,3.47283846 70.7826795,4.16547949 70.7826795,4.70642821 L73.2582488,4.70642821 C73.057791,6.03765897 72.6900018,6.09476154 72.3553392,6.13312051 C71.9701373,6.17322308 71.4350169,6.21158205 70.7325651,6.21158205 C70.6654627,7.79345385 70.6824506,9.66388974 70.7491283,10.4742231 C70.8332187,11.4201205 71.2842488,11.7675308 71.8533452,11.7675308 C72.3553392,11.7675308 72.8237819,11.5726846 73.0246645,11.4201205 L73.0743542,11.4576077 Z" id="Fill-17"></path>
                <path d="M74.6964063,16.3376103 C75.198825,15.7016359 76.2023883,14.1001487 76.8211744,12.7501744 C76.7379334,12.6146103 76.5536142,12.2100974 76.4533852,11.9019179 C76.1357105,10.9765077 74.6806925,6.5386359 74.044069,4.99555897 C74.5129364,4.72573846 75.3326051,4.47466154 75.7505087,4.47466154 C76.0516202,4.47466154 76.1357105,4.70612308 76.2529274,5.01430256 C76.6712557,6.26837949 77.4739364,8.9692 77.8744274,10.4172513 C78.4774997,8.66014872 79.1969395,5.84468718 79.4143852,4.47466154 C79.7486232,4.49514872 80.150813,4.55225128 80.5687166,4.68650769 C80.9700569,4.80332821 81.0205961,5.05440513 80.9195178,5.51689231 C80.4854756,7.52158462 79.7991623,9.9726359 78.8291503,12.3073026 C77.7584846,14.8716872 76.436822,17.1292 76.0516202,17.1292 C75.4659605,17.1292 74.8807256,16.7046359 74.6964063,16.4152 L74.6964063,16.3376103 Z" id="Fill-19"></path>
                <path d="M87.770419,10.562841 C88.3102111,10.3082769 88.9107352,8.80835385 88.9107352,6.86948205 C88.898419,5.76709744 88.5552623,5.27061026 88.0889431,5.27061026 C87.9780967,5.27061026 87.8434672,5.29981538 87.7330455,5.35691795 C87.3525154,5.55437949 86.580413,6.7426359 86.580413,9.00581538 C86.580413,10.0811744 86.9605184,10.6325846 87.426413,10.6325846 C87.5733587,10.6325846 87.6599973,10.605559 87.770419,10.562841 M85.1946208,8.96396923 C85.1946208,7.11053333 86.0779943,5.75271282 87.034416,5.17209744 C87.5245184,4.87481538 88.0643105,4.67648205 88.5425214,4.67648205 C89.6832623,4.67648205 90.2965274,5.53999487 90.2965274,6.91307179 C90.2965274,8.14317436 89.8671569,9.47309744 88.9842081,10.3361744 C88.4567322,10.8609949 87.6965214,11.2424051 86.9605184,11.2424051 C85.5993587,11.2424051 85.1946208,10.0672256 85.1946208,8.96396923" id="Fill-21"></path>
                <path d="M92.2845,4.91831795 C92.5049187,3.79980513 92.8000843,2.90752308 93.3759759,2.22970256 C94.0142982,1.47865128 94.7859759,1.08285641 95.2769277,1.08285641 C95.8158705,1.08285641 96.1229277,1.46513846 96.1114608,1.77593333 C96.0978705,2.0876 95.8659849,2.38488205 95.7067229,2.5121641 C95.5954518,2.58408718 95.4858795,2.59672821 95.3865,2.46988205 C95.0811416,2.06013846 94.8106084,1.81952308 94.5651325,1.81952308 C94.2589247,1.80557436 93.9760753,2.20093333 93.5968193,4.91831795 L95.007244,4.91831795 L94.7375602,5.44095897 L93.4863976,5.56780513 C93.2778705,6.95483077 93.1300753,8.04457436 92.8119759,9.64344615 C92.3579729,12.0051385 91.830497,12.9815487 91.0452289,13.8032154 C90.517753,14.3546256 90.0395422,14.5948051 89.6836446,14.5948051 C89.3035392,14.5948051 88.8750181,14.2840103 88.8869096,13.9435744 C88.8869096,13.6611128 89.0822711,13.3782154 89.2793313,13.2090872 C89.3774367,13.1236513 89.4509096,13.1092667 89.5366988,13.1798821 C89.7575422,13.4344462 90.1873373,13.6319077 90.4328133,13.6319077 C90.6290241,13.6319077 90.7751205,13.5203179 90.8736506,13.3076 C90.9721807,13.1092667 91.1556506,12.572241 91.5115482,10.1517026 C91.8062892,8.20018974 91.9655512,6.95483077 92.1740783,5.56780513 L91.1802831,5.56780513 L91.1310181,5.41218974 L91.535756,4.91831795 L92.2845,4.91831795 Z" id="Fill-23"></path>
                <path d="M107.397407,11.3035179 C107.347717,11.9591077 107.130271,12.5192359 106.844873,12.8274154 C106.42697,13.1364667 105.540199,13.4830051 104.419419,13.4830051 C100.605623,13.4830051 98.5475331,10.9765949 98.5475331,7.29108205 C98.5475331,3.29913333 101.17472,0.848082051 104.486096,0.848082051 C106.076169,0.848082051 107.298027,1.46531282 107.565163,1.81359487 C107.598289,2.46874872 107.213087,3.12521026 106.678392,3.02844103 C106.176398,2.77692821 105.389855,2.50710769 104.469108,2.50710769 C102.446268,2.50710769 100.789518,4.03100513 100.789518,7.11715897 C100.789518,9.74126154 102.244536,11.7472615 104.904849,11.7472615 C106.02563,11.7472615 106.912825,11.4203385 107.347717,11.2642872 L107.397407,11.3035179 Z" id="Fill-25"></path>
                <path d="M110.474817,10.705859 C110.474817,11.3801923 110.925847,11.7677051 111.461817,11.7677051 C111.929835,11.7677051 112.19782,11.5545513 112.431404,11.2642436 C112.515494,11.1496026 112.566033,10.9551923 112.566033,10.6086538 L112.566033,9.2399359 C111.110166,9.43303846 110.474817,10.0502692 110.474817,10.6862436 L110.474817,10.705859 Z M115.358853,11.8047564 C115.376265,12.8273718 114.907823,13.4249872 113.953524,13.4249872 C113.268485,13.4249872 112.817455,13.0209103 112.59916,12.3457051 C112.163844,12.8853462 111.427841,13.4249872 110.62516,13.4249872 C109.520943,13.4249872 108.533943,12.4603462 108.533943,11.0345256 C108.533943,9.04552564 110.54107,8.50675641 111.728952,8.19770513 C112.030913,8.12098718 112.397428,8.06388462 112.59916,8.00460256 L112.59916,7.67680769 C112.59916,6.86691026 112.113729,6.21132051 111.277922,6.21132051 C110.675699,6.21132051 110.090039,6.5195 109.721826,6.77014103 C109.019798,7.00160256 108.784515,6.30678205 108.784515,5.72965385 C109.50438,5.13029487 110.692262,4.47470513 111.813467,4.47470513 C113.318175,4.47470513 114.539184,5.63157692 114.539184,7.73478205 C114.539184,8.5255 114.472931,9.99142308 114.472931,11.2455 C114.472931,11.4957051 114.673814,11.7677051 115.075154,11.7677051 C115.15797,11.7677051 115.276036,11.7472179 115.358853,11.7284744 L115.358853,11.8047564 Z" id="Fill-27"></path>
                <path d="M116.913293,2.50723846 C116.913293,1.36998205 116.881865,0.847776923 116.84704,0.46244359 C117.182127,0.288520513 118.268507,0.115905128 118.620582,0.115905128 C118.871579,0.115905128 118.939106,0.211802564 118.939106,1.36998205 L118.939106,10.6471872 C118.939106,11.5939564 118.972233,12.6331359 119.005359,13.1937 C118.654558,13.2895974 117.382585,13.3475718 117.149001,13.3475718 C116.981245,13.3475718 116.913293,13.2895974 116.913293,13.0982385 L116.913293,2.50723846 Z" id="Fill-29"></path>
                <path d="M123.220749,12.7303846 C123.220749,13.0777949 123.103957,13.175 122.735319,13.2316667 C122.401081,13.289641 121.798858,13.3101282 121.145246,13.3101282 C121.162659,12.5194103 121.196635,11.3987179 121.196635,10.2810769 L121.196635,6.98176923 C121.196635,5.80615385 121.162659,5.20853846 121.128683,4.82102564 C121.51346,4.68676923 122.567987,4.5904359 122.918789,4.5904359 C123.152798,4.5904359 123.220749,4.68676923 123.220749,5.80615385 L123.220749,12.7303846 Z M122.250313,0.424128205 C122.885662,0.424128205 123.270439,0.964641026 123.270439,1.67820513 C123.270439,2.41007692 122.819409,2.99069231 122.18321,2.99069231 C121.664653,2.99069231 121.128683,2.62323077 121.128683,1.73574359 C121.128683,0.790717949 121.814572,0.424128205 122.233749,0.424128205 L122.250313,0.424128205 Z" id="Fill-31"></path>
                <path d="M128.925134,0 C129.394001,0 129.844182,0.173487179 130.07904,0.44374359 C130.179269,0.925410256 129.827619,1.77323077 129.376164,1.73574359 C129.242808,1.67820513 129.058489,1.63984615 128.925134,1.63984615 C128.104616,1.63984615 127.686712,2.52602564 127.736402,4.70638462 C127.970411,4.70638462 129.342188,4.726 129.743953,4.66802564 C129.694263,5.304 129.443691,5.74774359 129.226245,5.92123077 C129.008799,6.11433333 128.42314,6.19017949 127.686712,6.19017949 C127.686712,7.81215385 127.752965,12.0952821 127.752965,13.1553846 C127.21742,13.2504103 126.130616,13.3101282 125.896607,13.3101282 C125.729275,13.3101282 125.628622,13.2717692 125.628622,12.9814615 C125.679161,10.8983077 125.662598,8.56451282 125.662598,6.19017949 C125.009836,6.13307692 124.692161,5.92123077 124.692161,5.49710256 C124.97586,5.11264103 125.244694,4.99582051 125.662598,4.70638462 C125.662598,2.73874359 126.147179,1.63984615 126.833917,0.887051282 C127.535944,0.154307692 128.272372,0 128.907721,0 L128.925134,0 Z" id="Fill-33"></path>
                <path d="M133.557833,5.90248718 C132.537707,5.90248718 131.985173,7.11733333 131.985173,8.77679487 C131.985173,10.9767692 132.788704,11.9972051 133.742152,11.9972051 C134.778842,11.9972051 135.297399,10.8207179 135.297399,9.04574359 C135.297399,7.40764103 134.796255,5.90248718 133.574396,5.90248718 L133.557833,5.90248718 Z M133.742152,4.47492308 C136.150619,4.47492308 137.422592,6.44212821 137.422592,8.83389744 C137.422592,11.5351538 135.900472,13.4252051 133.557833,13.4252051 C131.399514,13.4252051 129.86083,11.7674872 129.86083,9.02787179 C129.86083,6.40376923 131.484029,4.47492308 133.725589,4.47492308 L133.742152,4.47492308 Z" id="Fill-35"></path>
                <path d="M138.843337,5.47766154 C138.976692,5.03391795 139.612891,4.47466154 140.064346,4.47466154 C140.800774,4.47466154 141.101036,5.28543077 141.117599,6.48153333 C141.603879,5.16948205 142.306331,4.47466154 143.193102,4.47466154 C143.509927,4.47466154 143.828452,4.64858462 143.979644,4.80332821 C144.062461,5.01473846 144.045897,5.57312308 143.878141,5.94058462 C143.811888,6.34684103 143.476801,6.80845641 143.226229,6.84768718 C142.891141,6.69425128 142.707247,6.65502051 142.423548,6.65502051 C142.156412,6.65502051 141.670132,6.88648205 141.402997,7.69550769 C141.301918,8.00455897 141.252229,8.21640513 141.252229,8.64140513 L141.252229,12.6725846 C141.252229,12.9816359 141.219102,13.1363795 140.884015,13.2130974 C140.298355,13.2898154 139.780647,13.3103026 139.176726,13.3103026 C139.211551,12.2868154 139.228114,11.1112 139.228114,9.79914872 L139.228114,6.5386359 C139.228114,6.09489231 139.127036,5.74748205 138.843337,5.55525128 L138.843337,5.47766154 Z" id="Fill-37"></path>
                <path d="M150.217323,7.98577179 C150.217323,6.86725897 149.699615,6.23041282 148.963187,6.23041282 C148.310425,6.23041282 147.892946,6.57782308 147.523883,6.94354103 L147.523883,12.7126436 C147.523883,13.0591821 147.474193,13.1550795 147.139955,13.1934385 C146.570859,13.2897718 146.053151,13.310259 145.450079,13.310259 C145.48363,12.2867718 145.500193,11.1111564 145.500193,9.79910513 L145.500193,6.63448974 C145.500193,6.05648974 145.432666,5.76792564 145.182519,5.59443846 L145.182519,5.45887436 C145.34985,4.97720769 145.918946,4.47461795 146.437504,4.47461795 C147.073702,4.47461795 147.324275,5.16943846 147.423654,5.76792564 C148.110392,5.07223333 148.913498,4.47461795 149.750154,4.47461795 C151.872799,4.47461795 152.243136,6.50023333 152.243136,8.00451538 L152.243136,10.4350795 C152.243136,11.4380795 152.25885,12.4990538 152.309389,13.1550795 C151.923763,13.1934385 151.255711,13.310259 150.55241,13.310259 C150.300989,13.310259 150.217323,13.1934385 150.217323,12.9423615 L150.217323,7.98577179 Z" id="Fill-39"></path>
                <path d="M156.573705,12.7303846 C156.573705,13.0777949 156.456913,13.175 156.088274,13.2316667 C155.754036,13.289641 155.151813,13.3101282 154.499901,13.3101282 C154.515614,12.5194103 154.54959,11.3987179 154.54959,10.2810769 L154.54959,6.98176923 C154.54959,5.80615385 154.515614,5.20853846 154.482488,4.82102564 C154.867265,4.68676923 155.920943,4.5904359 156.272593,4.5904359 C156.507452,4.5904359 156.573705,4.68676923 156.573705,5.80615385 L156.573705,12.7303846 Z M155.604117,0.424128205 C156.239467,0.424128205 156.623395,0.964641026 156.623395,1.67820513 C156.623395,2.41007692 156.173214,2.99069231 155.537864,2.99069231 C155.018458,2.99069231 154.482488,2.62323077 154.482488,1.73574359 C154.482488,0.790717949 155.168377,0.424128205 155.587554,0.424128205 L155.604117,0.424128205 Z" id="Fill-41"></path>
                <path d="M160.171201,10.705859 C160.171201,11.3801923 160.622231,11.7677051 161.157352,11.7677051 C161.626219,11.7677051 161.893355,11.5545513 162.127788,11.2642436 C162.211879,11.1496026 162.261568,10.9551923 162.261568,10.6086538 L162.261568,9.2399359 C160.80655,9.43303846 160.171201,10.0502692 160.171201,10.6862436 L160.171201,10.705859 Z M165.055237,11.8047564 C165.0718,12.8273718 164.604207,13.4249872 163.649909,13.4249872 C162.96487,13.4249872 162.51299,13.0209103 162.294695,12.3457051 C161.860228,12.8853462 161.124225,13.4249872 160.320695,13.4249872 C159.217327,13.4249872 158.230327,12.4603462 158.230327,11.0345256 C158.230327,9.04552564 160.237454,8.50675641 161.425336,8.19770513 C161.726448,8.12098718 162.093812,8.06388462 162.294695,8.00460256 L162.294695,7.67680769 C162.294695,6.86691026 161.810114,6.21132051 160.973457,6.21132051 C160.371234,6.21132051 159.786424,6.5195 159.41821,6.77014103 C158.714484,7.00160256 158.4809,6.30678205 158.4809,5.72965385 C159.200764,5.13029487 160.386948,4.47470513 161.508153,4.47470513 C163.014559,4.47470513 164.235568,5.63157692 164.235568,7.73478205 C164.235568,8.5255 164.169315,9.99142308 164.169315,11.2455 C164.169315,11.4957051 164.370198,11.7677051 164.769839,11.7677051 C164.854355,11.7677051 164.971571,11.7472179 165.055237,11.7284744 L165.055237,11.8047564 Z" id="Fill-43"></path>
                <path d="M15.6116304,23.7453385 L15.5780792,23.7453385 C15.2506364,24.7710051 14.9465521,25.8075692 14.6305762,26.8066462 L16.5030732,26.8066462 L15.6116304,23.7453385 Z M16.6270852,30.4141333 L16.6270852,29.9878256 C17.3032057,29.8679538 17.3707328,29.7214923 17.2131696,29.1622359 C17.0891575,28.7232872 16.8976184,28.0973385 16.6946123,27.4587487 L14.4505039,27.4587487 C14.3035581,27.9517487 14.1455702,28.4573897 14.010516,28.9891846 C13.8189768,29.7088513 13.875037,29.8679538 14.698528,29.9878256 L14.698528,30.4141333 L12.2055461,30.4141333 L12.2055461,29.9878256 C12.9390009,29.8679538 13.0850973,29.7485179 13.469025,28.6034154 L15.7806605,21.7223385 L16.2775581,21.5610564 C16.9991214,23.8787231 17.7096425,26.2735436 18.4426726,28.5633128 C18.8147087,29.7358769 18.9616545,29.8805949 19.6832178,29.9878256 L19.6832178,30.4141333 L16.6270852,30.4141333 Z" id="Fill-45"></path>
                <path d="M22.4487289,24.8499462 C22.0652259,24.8499462 21.6931898,25.3830487 21.6931898,26.3808179 C21.6931898,27.3393564 22.008741,28.0834333 22.5731657,28.0973821 C23.035238,28.0834333 23.339747,27.5520744 23.339747,26.5534333 C23.339747,25.6219205 23.035238,24.8499462 22.4601958,24.8499462 L22.4487289,24.8499462 Z M22.5956747,30.6530487 C22.053759,30.6530487 21.8057349,30.7201769 21.625238,30.9337667 C21.4222319,31.1595615 21.2757108,31.4123821 21.2757108,31.7318949 C21.2757108,32.4101513 21.873262,33.0103821 22.7426205,33.0103821 C23.6778072,33.0103821 24.1967892,32.4236641 24.1967892,31.6787154 C24.1967892,31.2131769 23.9602319,30.906741 23.6098554,30.7864333 C23.3168133,30.6809462 23.0462801,30.6530487 22.6071416,30.6530487 L22.5956747,30.6530487 Z M25.3583404,24.6773308 C25.2797711,24.9035615 25.0652982,25.3032795 24.8733343,25.4353564 L24.2311898,25.3830487 C24.4108373,25.6620231 24.5352741,26.0076897 24.5352741,26.4597154 C24.5352741,27.8720231 23.4973102,28.5633564 22.4487289,28.5633564 C22.2567651,28.5633564 22.0652259,28.5241256 21.8847289,28.4971 C21.7832259,28.6030231 21.670256,28.7765103 21.670256,28.9364846 C21.670256,29.1622795 21.8622199,29.4421256 22.3812018,29.4421256 C22.7647048,29.4421256 23.1142319,29.4146641 23.4748012,29.4146641 C24.185747,29.4146641 25.1668012,29.6687923 25.1668012,31.0270487 C25.1668012,32.4907923 23.7342922,33.728741 22.234256,33.728741 C20.8471898,33.728741 20.1816867,32.8508436 20.1816867,32.1041513 C20.1816867,31.7972795 20.2942319,31.5723564 20.4976627,31.3722795 C20.7571536,31.1063821 21.1066807,30.8391769 21.3772139,30.6138179 C20.9372259,30.4272538 20.6896265,30.1609205 20.542256,29.8679974 C20.4301355,29.6687923 20.3732259,29.3754333 20.3961596,29.2167667 C20.9261837,28.9765872 21.2876024,28.6165359 21.4906084,28.3637154 C20.8696988,28.0973821 20.4186687,27.4448436 20.4186687,26.5935359 C20.4186687,25.0892538 21.5806446,24.3979205 22.5391898,24.3979205 L22.5506566,24.3979205 C22.9791777,24.3979205 23.3168133,24.5034077 23.7117831,24.7435872 C24.28725,24.7169974 24.8733343,24.6367923 25.3022801,24.5705359 L25.3583404,24.6773308 Z" id="Fill-47"></path>
                <path d="M27.8404075,25.8077436 C28.2243352,25.0235641 28.6868322,24.3980513 29.1493292,24.3980513 C29.5774256,24.3980513 29.8708925,24.756359 29.8708925,25.1691538 C29.8708925,25.555359 29.6564196,25.9014615 29.3858864,26.0213333 C29.2389407,26.0880256 29.1259708,26.0618718 29.0588684,25.980359 C28.8669045,25.7951026 28.7318503,25.7013846 28.5513533,25.7013846 C28.3033292,25.7013846 28.0323714,25.9550769 27.8183232,26.5670769 L27.8183232,29.0294615 C27.8183232,29.8676923 27.8748081,29.9352564 28.7433172,30.0141538 L28.7433172,30.4138718 L25.8337057,30.4138718 L25.8337057,30.0141538 C26.476275,29.9352564 26.577778,29.8676923 26.577778,29.0294615 L26.577778,26.1669231 C26.577778,25.4228462 26.5102509,25.3687949 25.9343593,25.2349744 L25.9343593,24.8893077 C26.5663111,24.7842564 27.1757539,24.6242821 27.8183232,24.3714615 L27.8183232,25.8077436 L27.8404075,25.8077436 Z" id="Fill-49"></path>
                <path d="M30.9215548,22.6002359 C30.9215548,22.1220564 31.2591904,21.7484923 31.6435428,21.7484923 C32.0487054,21.7484923 32.3646813,22.1220564 32.3646813,22.6002359 C32.3646813,23.0522615 32.0487054,23.4393385 31.6320759,23.4393385 C31.2591904,23.4393385 30.9215548,23.0522615 30.9215548,22.6002359 L30.9215548,22.6002359 Z M30.3575548,30.4141333 L30.3575548,30.0144154 C31.0341,29.9215692 31.1016271,29.8679538 31.1016271,28.936441 L31.1016271,26.2604667 C31.1016271,25.4087231 31.0341,25.3546718 30.4471663,25.2496205 L30.4471663,24.8764923 C31.0905849,24.7845179 31.7667054,24.6105949 32.342597,24.3843641 L32.342597,28.936441 C32.342597,29.8404923 32.3986572,29.9215692 33.0972867,30.0144154 L33.0972867,30.4141333 L30.3575548,30.4141333 Z" id="Fill-51"></path>
                <path d="M38.0607416,29.1621051 C37.5536512,29.9881308 36.8091542,30.5744128 36.1321843,30.5744128 C34.6329976,30.5744128 33.752597,29.2022077 33.752597,27.7663615 C33.752597,26.7677205 34.158609,25.8484128 34.8916392,25.1963103 C35.5681843,24.5965154 36.290597,24.3977462 36.7186934,24.3977462 L36.7297355,24.3977462 C37.1476392,24.3977462 37.5201,24.5442077 37.7112145,24.7307718 C37.8687777,24.8763615 37.9142205,25.0110538 37.9142205,25.1823615 C37.9031783,25.5284641 37.6326452,25.8623615 37.4636151,25.8623615 C37.3952386,25.8623615 37.3277114,25.8213872 37.2266331,25.7150282 C36.8091542,25.2747718 36.4371181,25.0764385 36.0871663,25.0764385 C35.5346331,25.0764385 34.9816753,25.6622846 34.9816753,27.0854897 C34.9816753,28.8826949 36.0531904,29.4694128 36.5946813,29.4694128 C37.0690699,29.4694128 37.4071301,29.3212077 37.8577355,28.8569769 L38.0607416,29.1621051 Z" id="Fill-53"></path>
                <path d="M44.3447548,30.094359 C44.0508633,30.1484103 43.735312,30.2142308 43.3857849,30.3079487 C43.0591916,30.3881538 42.7202819,30.4945128 42.4272398,30.5747179 L42.3486705,30.4805641 L42.3486705,29.6296923 C42.1227307,29.8288974 41.9532759,30.0141538 41.6823181,30.2007179 C41.3553,30.4404615 41.0737247,30.5747179 40.7462819,30.5747179 C39.8667307,30.5747179 39.2916886,29.9217436 39.2916886,28.6441282 L39.2916886,25.9550769 C39.2916886,25.3034103 39.2131193,25.2349744 38.9306946,25.1425641 L38.6486946,25.0627949 L38.6486946,24.6901026 C38.9200771,24.6774615 39.2356283,24.6508718 39.5966223,24.6107692 C39.9457247,24.5706667 40.3067187,24.5035385 40.5662096,24.4643077 C40.5441253,24.9699487 40.5326584,25.6220513 40.5326584,26.4472051 L40.5326584,28.3237436 C40.5326584,29.3088718 40.9611795,29.6148718 41.3892759,29.6148718 C41.7277608,29.6148718 42.043312,29.4954359 42.3486705,29.1488974 L42.3486705,25.9550769 C42.3486705,25.3034103 42.2688271,25.2232051 41.9413843,25.1425641 L41.5701976,25.0627949 L41.5701976,24.6901026 C41.896791,24.6774615 42.2917608,24.6508718 42.6523301,24.5968205 C43.0252157,24.5706667 43.3628512,24.5035385 43.5883663,24.4643077 L43.5883663,28.8302564 C43.5883663,29.5220256 43.6558934,29.6296923 44.0729476,29.6824359 L44.3447548,29.7085897 L44.3447548,30.094359 Z" id="Fill-55"></path>
                <path d="M44.8310349,30.4140462 L44.8310349,30.0143282 C45.5186223,29.908841 45.5861494,29.840841 45.5861494,28.9764564 L45.5861494,22.8128667 C45.5861494,21.9746359 45.5300892,21.9349692 44.876053,21.8538923 L44.876053,21.4829436 C45.4961133,21.4031744 46.2852036,21.2030974 46.8266946,21.0160974 L46.8266946,28.9764564 C46.8266946,29.8678667 46.9061133,29.9349949 47.6051675,30.0143282 L47.6051675,30.4140462 L44.8310349,30.4140462 Z" id="Fill-57"></path>
                <path d="M50.4707377,30.4140462 C50.2787738,30.5204051 50.0982768,30.5744564 50.0082407,30.5744564 C49.1966413,30.5744564 48.7337196,30.0805846 48.7337196,28.9237128 L48.7337196,25.1558154 L48.0011142,25.1558154 L47.9446292,24.9954051 L48.2597557,24.5573282 L48.7337196,24.5573282 L48.7337196,23.5857128 L49.8167015,22.6001487 L49.9632226,22.6664051 L49.9632226,24.5573282 L51.135816,24.5573282 C51.259828,24.689841 51.2377437,25.0490205 51.0687136,25.1558154 L49.9632226,25.1558154 L49.9632226,28.4843282 C49.9632226,29.5357128 50.3692346,29.6821744 50.6176834,29.6821744 C50.8427738,29.6821744 51.0462045,29.6010974 51.2262768,29.509559 L51.338822,29.9214821 L50.4707377,30.4140462 Z" id="Fill-59"></path>
                <path d="M57.4075554,30.094359 C57.1140886,30.1484103 56.7985373,30.2142308 56.4494349,30.3079487 C56.1219922,30.3881538 55.7835072,30.4945128 55.4900404,30.5747179 L55.4110464,30.4805641 L55.4110464,29.6296923 C55.1863807,29.8288974 55.0173506,30.0141538 54.7459681,30.2007179 C54.4185253,30.4404615 54.1373747,30.5747179 53.8099319,30.5747179 C52.9303807,30.5747179 52.3553386,29.9217436 52.3553386,28.6441282 L52.3553386,25.9550769 C52.3553386,25.3034103 52.2759199,25.2349744 51.9939199,25.1425641 L51.7119199,25.0627949 L51.7119199,24.6901026 C51.9833024,24.6774615 52.2988536,24.6508718 52.6598476,24.6107692 C53.0093747,24.5706667 53.3703687,24.5035385 53.6298596,24.4643077 C53.6069259,24.9699487 53.5963084,25.6220513 53.5963084,26.4472051 L53.5963084,28.3237436 C53.5963084,29.3088718 54.0244048,29.6148718 54.4529259,29.6148718 C54.7914108,29.6148718 55.1073867,29.4954359 55.4110464,29.1488974 L55.4110464,25.9550769 C55.4110464,25.3034103 55.3324771,25.2232051 55.005459,25.1425641 L54.6334229,25.0627949 L54.6334229,24.6901026 C54.9608657,24.6774615 55.3549861,24.6508718 55.7159801,24.5968205 C56.0880163,24.5706667 56.4265012,24.5035385 56.6515916,24.4643077 L56.6515916,28.8302564 C56.6515916,29.5220256 56.7199681,29.6296923 57.1370223,29.6824359 L57.4075554,29.7085897 L57.4075554,30.094359 Z" id="Fill-61"></path>
                <path d="M60.0142292,25.8077436 C60.3977322,25.0235641 60.8606539,24.3980513 61.3231509,24.3980513 C61.7512473,24.3980513 62.0447142,24.756359 62.0447142,25.1691538 C62.0447142,25.555359 61.8298166,25.9014615 61.5601328,26.0213333 C61.4127623,26.0880256 61.3006419,26.0618718 61.2326901,25.980359 C61.0407262,25.7951026 60.9060967,25.7013846 60.7255997,25.7013846 C60.4767262,25.7013846 60.2061931,25.9550769 59.9921449,26.5670769 L59.9921449,29.0294615 C59.9921449,29.8676923 60.0490545,29.9352564 60.9171389,30.0141538 L60.9171389,30.4138718 L58.0071027,30.4138718 L58.0071027,30.0141538 C58.6500967,29.9352564 58.7515997,29.8676923 58.7515997,29.0294615 L58.7515997,26.1669231 C58.7515997,25.4228462 58.6836479,25.3687949 58.108181,25.2349744 L58.108181,24.8893077 C58.7405575,24.7842564 59.3495756,24.6242821 59.9921449,24.3714615 L59.9921449,25.8077436 L60.0142292,25.8077436 Z" id="Fill-63"></path>
                <path d="M64.707703,24.9172051 C64.2562482,24.9172051 63.8281518,25.5152564 63.7262241,26.5670769 C64.2447813,26.5670769 64.7416789,26.5535641 65.2602361,26.5278462 C65.4407331,26.5278462 65.5082602,26.4881795 65.5193024,26.2732821 C65.5193024,25.5819487 65.2152181,24.9172051 64.7187452,24.9172051 L64.707703,24.9172051 Z M66.704212,29.1759231 C66.0157753,30.3079487 65.1702,30.5747179 64.7416789,30.5747179 C63.2866608,30.5747179 62.4631699,29.2556923 62.4631699,27.7252564 C62.4631699,26.7527692 62.790188,25.9149744 63.2641518,25.3548462 C63.7491578,24.756359 64.3696428,24.3980513 64.9553024,24.3980513 L64.967194,24.3980513 C65.9707572,24.3980513 66.7488054,25.4228462 66.7488054,26.4881795 C66.7488054,26.7527692 66.6812783,26.9131795 66.4442964,26.9541538 C66.2412904,26.9925128 64.8542241,27.1136923 63.6697392,27.1655641 C63.7037151,28.7365385 64.4477873,29.4692821 65.249194,29.4692821 C65.6887572,29.4692821 66.1168536,29.2822821 66.5122482,28.8568462 L66.704212,29.1759231 Z" id="Fill-65"></path>
                <path d="M72.728437,27.2193103 C72.5024973,27.3657718 72.1975636,27.5523359 71.961431,27.6979256 C71.5775033,27.9119513 71.3744973,28.1652077 71.3744973,28.6307462 C71.3744973,29.3491051 71.8030184,29.6420282 72.0964852,29.6420282 C72.2990666,29.6420282 72.5250063,29.5217205 72.728437,29.3360282 L72.728437,27.2193103 Z M73.6755154,30.5744128 C73.4160244,30.5744128 73.1905093,30.4536692 73.0439883,30.3080795 C72.8974672,30.1337205 72.8184732,29.9606692 72.762413,29.7749769 C72.3215756,30.1215154 71.7919762,30.5744128 71.5329099,30.5744128 C70.630425,30.5744128 70.066425,29.7213615 70.066425,28.8966436 C70.066425,28.2170795 70.348425,27.8579 70.9459762,27.6046436 C71.6123286,27.3256692 72.4685214,26.9922077 72.728437,26.7276179 L72.728437,26.3937205 C72.728437,25.5153872 72.4124611,25.0236949 71.9384973,25.0236949 C71.7694672,25.0236949 71.6229461,25.1034641 71.5210184,25.2634385 C71.3859642,25.4486949 71.2848858,25.7551308 71.194425,26.1670538 C71.1268979,26.4739256 70.9799521,26.5672077 70.7654792,26.5672077 C70.506413,26.5672077 70.145419,26.2734128 70.145419,25.9277462 C70.145419,25.7150282 70.2808979,25.5428487 70.5284973,25.3427718 C70.912425,25.0110538 71.6900485,24.5442077 72.3330425,24.3977462 C72.7509461,24.3977462 73.0890063,24.5167462 73.3705816,24.7708744 C73.8224611,25.1823615 73.9350063,25.7551308 73.9350063,26.4739256 L73.9350063,28.7763359 C73.9350063,29.3900795 74.115928,29.5618231 74.3066178,29.5618231 C74.4429461,29.5618231 74.5780003,29.5095154 74.6909702,29.4423872 L74.8145575,29.8407974 L73.6755154,30.5744128 Z" id="Fill-67"></path>
                <path d="M78.4363889,30.4140462 L78.4363889,30.0143282 C78.9778798,29.9349949 79.0454069,29.8678667 79.0454069,28.9237128 L79.0454069,26.6866872 C79.0454069,25.7420974 78.6958798,25.3428154 78.1768979,25.3428154 C77.8269461,25.3428154 77.5007774,25.5555333 77.1962684,25.8484564 L77.1962684,29.0292 C77.1962684,29.8805077 77.2637955,29.9349949 77.7933949,30.0143282 L77.7933949,30.4140462 L75.1768256,30.4140462 L75.1768256,30.0143282 C75.8988136,29.908841 75.9548738,29.8678667 75.9548738,28.9890974 L75.9548738,26.2333538 C75.9548738,25.4090718 75.8988136,25.3689692 75.3237714,25.2347128 L75.3237714,24.8764051 C75.9213226,24.7844308 76.5864009,24.596559 77.1962684,24.3568154 L77.1962684,25.3689692 C77.4213587,25.1824051 77.6468738,24.9827641 77.9174069,24.7844308 C78.244425,24.5303026 78.4928738,24.3977897 78.8198919,24.3977897 C79.7223768,24.3977897 80.2749099,25.1693282 80.2749099,26.4879179 L80.2749099,29.016559 C80.2749099,29.8805077 80.3420123,29.9214821 80.962922,30.0143282 L80.962922,30.4140462 L78.4363889,30.4140462 Z" id="Fill-69"></path>
                <path d="M85.2502139,25.6221385 C85.0361657,25.1557282 84.6751717,24.9299333 84.3027108,24.9299333 C83.9412922,24.9299333 83.0511235,25.3427282 83.0511235,27.3256256 C83.0511235,28.9502154 83.8627229,29.6293436 84.4611235,29.6293436 C84.7312319,29.6293436 84.9911476,29.5216769 85.2502139,29.3211641 L85.2502139,25.6221385 Z M87.2913163,30.0674205 C87.0318253,30.1214718 86.0507711,30.2810103 85.2502139,30.5874462 L85.2502139,29.7749333 L84.5617771,30.2810103 C84.2237169,30.5203179 84.0088193,30.5743692 83.8848072,30.5743692 C82.9381536,30.5743692 81.6525904,29.6293436 81.6525904,27.6843692 C81.6525904,25.8623179 83.0056807,24.3977026 84.6751717,24.3977026 C84.7872922,24.3977026 84.9911476,24.4234205 85.2502139,24.4914205 L85.2502139,22.7857538 C85.2502139,22.0155231 85.1826867,21.9623436 84.4492319,21.8686256 L84.4492319,21.4828564 C85.1262018,21.3895744 85.9722018,21.2030103 86.4899096,21.0164462 L86.4899096,28.7893692 C86.4899096,29.5216769 86.5582861,29.5766 87.009741,29.6419846 L87.2913163,29.6820872 L87.2913163,30.0674205 Z" id="Fill-71"></path>
                <path d="M98.2331711,22.1877462 C97.624153,22.2287205 97.3761289,22.4144128 97.3192193,23.0133359 C97.2754753,23.4121821 97.2304572,24.0385667 97.2304572,25.2346692 L97.2304572,30.5473872 L96.755644,30.5473872 L92.0185536,23.7853103 L91.996894,23.7853103 L91.996894,26.9133103 C91.996894,28.0976436 92.041912,28.6965667 92.0750386,29.0967205 C92.1310988,29.7213615 92.3464211,29.9349513 93.1584452,29.9881308 L93.1584452,30.4140026 L90.4284813,30.4140026 L90.4284813,29.9881308 C91.0604331,29.9349513 91.3309663,29.7357462 91.3883006,29.1355154 C91.4210024,28.6965667 91.4783367,28.0976436 91.4783367,26.9133103 L91.4783367,24.0786692 C91.4783367,23.1728744 91.4660205,22.9867462 91.252397,22.6811821 C91.0264572,22.3477205 90.7899,22.2404897 90.2815355,22.1877462 L90.2815355,21.7623103 L92.2219843,21.7623103 L96.6774994,27.8975667 L96.7102012,27.8975667 L96.7102012,25.2346692 C96.7102012,24.0385667 96.6545657,23.4121821 96.6320566,23.0272846 C96.5636801,22.4540795 96.3271229,22.2404897 95.5150988,22.1877462 L95.5150988,21.7623103 L98.2331711,21.7623103 L98.2331711,22.1877462 Z" id="Fill-73"></path>
                <path d="M101.337125,27.2193103 C101.112034,27.3657718 100.807525,27.5523359 100.570543,27.6979256 C100.185766,27.9119513 99.9831849,28.1652077 99.9831849,28.6307462 C99.9831849,29.3491051 100.41298,29.6420282 100.705598,29.6420282 C100.908604,29.6420282 101.135393,29.5217205 101.337125,29.3360282 L101.337125,27.2193103 Z M102.285052,30.5744128 C102.025561,30.5744128 101.800046,30.4536692 101.653101,30.3080795 C101.507004,30.1337205 101.427586,29.9606692 101.370676,29.7749769 C100.930688,30.1215154 100.401513,30.5744128 100.142447,30.5744128 C99.239962,30.5744128 98.6755373,29.7213615 98.6755373,28.8966436 C98.6755373,28.2170795 98.9575373,27.8579 99.5563627,27.6046436 C100.220592,27.3256692 101.077634,26.9922077 101.337125,26.7276179 L101.337125,26.3937205 C101.337125,25.5153872 101.021149,25.0236949 100.54761,25.0236949 C100.378155,25.0236949 100.231209,25.1034641 100.130131,25.2634385 C99.9950765,25.4486949 99.8944229,25.7551308 99.8043867,26.1670538 C99.7355855,26.4739256 99.5886398,26.5672077 99.375441,26.5672077 C99.1155253,26.5672077 98.7553807,26.2734128 98.7553807,25.9277462 C98.7553807,25.7150282 98.8900102,25.5428487 99.1371849,25.3427718 C99.5223867,25.0110538 100.298736,24.5442077 100.942155,24.3977462 C101.360058,24.3977462 101.698119,24.5167462 101.980119,24.7708744 C102.430299,25.1823615 102.544968,25.7551308 102.544968,26.4739256 L102.544968,28.7763359 C102.544968,29.3900795 102.724191,29.5618231 102.916155,29.5618231 C103.051634,29.5618231 103.186688,29.5095154 103.300507,29.4423872 L103.424095,29.8407974 L102.285052,30.5744128 Z" id="Fill-75"></path>
                <path d="M106.108786,30.4140462 C105.917671,30.5204051 105.736749,30.5744564 105.646713,30.5744564 C104.834264,30.5744564 104.372192,30.0805846 104.372192,28.9237128 L104.372192,25.1558154 L103.639162,25.1558154 L103.583527,24.9954051 L103.898653,24.5573282 L104.372192,24.5573282 L104.372192,23.5857128 L105.455599,22.6001487 L105.602545,22.6664051 L105.602545,24.5573282 L106.774289,24.5573282 C106.897876,24.689841 106.875792,25.0490205 106.707186,25.1558154 L105.602545,25.1558154 L105.602545,28.4843282 C105.602545,29.5357128 106.007283,29.6821744 106.256156,29.6821744 C106.481671,29.6821744 106.684252,29.6010974 106.864749,29.509559 L106.97687,29.9214821 L106.108786,30.4140462 Z" id="Fill-77"></path>
                <path d="M113.047047,30.094359 C112.752731,30.1484103 112.436755,30.2142308 112.086803,30.3079487 C111.761059,30.3881538 111.42215,30.4945128 111.128683,30.5747179 L111.050963,30.4805641 L111.050963,29.6296923 C110.824598,29.8288974 110.655568,30.0141538 110.384186,30.2007179 C110.057592,30.4404615 109.775592,30.5747179 109.447725,30.5747179 C108.569448,30.5747179 107.993132,29.9217436 107.993132,28.6441282 L107.993132,25.9550769 C107.993132,25.3034103 107.914138,25.2349744 107.632987,25.1425641 L107.350987,25.0627949 L107.350987,24.6901026 C107.62152,24.6774615 107.937071,24.6508718 108.298065,24.6107692 C108.648017,24.5706667 109.009011,24.5035385 109.268927,24.4643077 C109.245144,24.9699487 109.233677,25.6220513 109.233677,26.4472051 L109.233677,28.3237436 C109.233677,29.3088718 109.663047,29.6148718 110.091144,29.6148718 C110.429204,29.6148718 110.744755,29.4954359 111.050963,29.1488974 L111.050963,25.9550769 C111.050963,25.3034103 110.97112,25.2232051 110.643252,25.1425641 L110.272065,25.0627949 L110.272065,24.6901026 C110.598234,24.6774615 110.994053,24.6508718 111.354623,24.5968205 C111.726659,24.5706667 112.065144,24.5035385 112.290234,24.4643077 L112.290234,28.8302564 C112.290234,29.5220256 112.358611,29.6296923 112.77524,29.6824359 L113.047047,29.7085897 L113.047047,30.094359 Z" id="Fill-79"></path>
                <path d="M115.652489,25.8077436 C116.035568,25.0235641 116.498489,24.3980513 116.961411,24.3980513 C117.390782,24.3980513 117.682125,24.756359 117.682125,25.1691538 C117.682125,25.555359 117.468502,25.9014615 117.198818,26.0213333 C117.051872,26.0880256 116.938053,26.0618718 116.87095,25.980359 C116.678986,25.7951026 116.544357,25.7013846 116.363435,25.7013846 C116.115411,25.7013846 115.844878,25.9550769 115.63083,26.5670769 L115.63083,29.0294615 C115.63083,29.8676923 115.688164,29.9352564 116.55455,30.0141538 L116.55455,30.4138718 L113.645363,30.4138718 L113.645363,30.0141538 C114.287932,29.9352564 114.389011,29.8676923 114.389011,29.0294615 L114.389011,26.1669231 C114.389011,25.4228462 114.322333,25.3687949 113.746441,25.2349744 L113.746441,24.8893077 C114.379242,24.7842564 114.987411,24.6242821 115.63083,24.3714615 L115.63083,25.8077436 L115.652489,25.8077436 Z" id="Fill-81"></path>
                <path d="M120.932175,27.2193103 C120.707509,27.3657718 120.403,27.5523359 120.165594,27.6979256 C119.782515,27.9119513 119.579085,28.1652077 119.579085,28.6307462 C119.579085,29.3491051 120.007606,29.6420282 120.301073,29.6420282 C120.503654,29.6420282 120.728744,29.5217205 120.932175,29.3360282 L120.932175,27.2193103 Z M121.879253,30.5744128 C121.620612,30.5744128 121.395521,30.4536692 121.249,30.3080795 C121.102055,30.1337205 121.022636,29.9606692 120.966151,29.7749769 C120.526588,30.1215154 119.996564,30.5744128 119.737073,30.5744128 C118.835437,30.5744128 118.271012,29.7213615 118.271012,28.8966436 C118.271012,28.2170795 118.553012,27.8579 119.150564,27.6046436 C119.815642,27.3256692 120.672684,26.9922077 120.932175,26.7276179 L120.932175,26.3937205 C120.932175,25.5153872 120.616624,25.0236949 120.14266,25.0236949 C119.974479,25.0236949 119.827533,25.1034641 119.725606,25.2634385 C119.590976,25.4486949 119.488199,25.7551308 119.398588,26.1670538 C119.330636,26.4739256 119.18369,26.5672077 118.970067,26.5672077 C118.711425,26.5672077 118.349582,26.2734128 118.349582,25.9277462 C118.349582,25.7150282 118.484636,25.5428487 118.733085,25.3427718 C119.117012,25.0110538 119.894636,24.5442077 120.53678,24.3977462 C120.954684,24.3977462 121.294443,24.5167462 121.575169,24.7708744 C122.026199,25.1823615 122.13832,25.7551308 122.13832,26.4739256 L122.13832,28.7763359 C122.13832,29.3900795 122.320091,29.5618231 122.51163,29.5618231 C122.646684,29.5618231 122.781314,29.5095154 122.894708,29.4423872 L123.01872,29.8407974 L121.879253,30.5744128 Z" id="Fill-83"></path>
                <path d="M123.336055,30.4140462 L123.336055,30.0143282 C124.023642,29.908841 124.091594,29.840841 124.091594,28.9764564 L124.091594,22.8128667 C124.091594,21.9746359 124.035534,21.9349692 123.380648,21.8538923 L123.380648,21.4829436 C124.001133,21.4031744 124.791073,21.2030974 125.331715,21.0160974 L125.331715,28.9764564 C125.331715,29.8678667 125.411558,29.9349949 126.110612,30.0143282 L126.110612,30.4140462 L123.336055,30.4140462 Z" id="Fill-85"></path>
                <path d="M132.010018,26.1810897 C132.528576,26.1810897 132.901886,26.0742949 133.160527,25.8214744 C133.555497,25.4352692 133.723678,24.9034744 133.723678,24.212141 C133.723678,22.7858846 133.002964,22.2549615 132.281826,22.2549615 C131.988359,22.2549615 131.818479,22.3216538 131.740335,22.3879103 C131.661765,22.4668077 131.638832,22.6123974 131.638832,22.9210128 L131.638832,26.1810897 L132.010018,26.1810897 Z M136.216235,30.5335256 C136.127473,30.5335256 135.99157,30.5204487 135.867982,30.5204487 C134.649521,30.4537564 134.198491,30.1085256 133.723678,29.2559103 C133.397934,28.6709359 133.048407,27.9120385 132.720964,27.2329103 C132.540892,26.8340641 132.337461,26.6736538 131.897898,26.6736538 L131.638832,26.6736538 L131.638832,28.683141 C131.638832,29.7750641 131.740335,29.8945 132.607994,29.9877821 L132.607994,30.4140897 L129.360323,30.4140897 L129.360323,29.9877821 C130.229681,29.8945 130.352844,29.7877051 130.352844,28.683141 L130.352844,23.4785256 C130.352844,22.3879103 130.250916,22.2815513 129.405341,22.2013462 L129.405341,21.7623974 L132.438115,21.7623974 C133.364383,21.7623974 133.928808,21.8940385 134.378988,22.2405769 C134.829594,22.6001923 135.134103,23.1856026 135.134103,24.0107564 C135.134103,25.1693718 134.491958,25.8214744 133.713485,26.2081154 C133.894407,26.6200385 134.323353,27.5105769 134.660139,28.1116795 C135.067,28.8435513 135.303133,29.2419615 135.552006,29.5357564 C135.810648,29.8805513 136.025121,30.0405256 136.285036,30.1333718 L136.216235,30.5335256 Z" id="Fill-87"></path>
                <path d="M138.926281,24.9172051 C138.475251,24.9172051 138.047154,25.5152564 137.944802,26.5670769 C138.463784,26.5670769 138.960257,26.5535641 139.478389,26.5278462 C139.659736,26.5278462 139.726838,26.4881795 139.737455,26.2732821 C139.737455,25.5819487 139.433796,24.9172051 138.936898,24.9172051 L138.926281,24.9172051 Z M140.92194,29.1759231 C140.234778,30.3079487 139.389202,30.5747179 138.960257,30.5747179 C137.505663,30.5747179 136.681748,29.2556923 136.681748,27.7252564 C136.681748,26.7527692 137.00919,25.9149744 137.483154,25.3548462 C137.96816,24.756359 138.587371,24.3980513 139.174305,24.3980513 L139.184922,24.3980513 C140.18891,24.3980513 140.967808,25.4228462 140.967808,26.4881795 C140.967808,26.7527692 140.900281,26.9131795 140.663299,26.9541538 C140.459443,26.9925128 139.072802,27.1136923 137.889591,27.1655641 C137.922717,28.7365385 138.666365,29.4692821 139.467772,29.4692821 C139.90776,29.4692821 140.335431,29.2822821 140.730401,28.8568462 L140.92194,29.1759231 Z" id="Fill-89"></path>
                <path d="M144.724439,26.2211051 C144.453056,25.4090282 144.081445,24.8763615 143.539954,24.8763615 C143.190002,24.8763615 142.908851,25.210259 142.908851,25.6766692 C142.908851,26.1400282 143.235445,26.4599769 143.788827,26.7398231 C144.67942,27.1927205 145.276972,27.6586949 145.276972,28.6564641 C145.276972,29.9353872 144.25005,30.5744128 143.315288,30.5744128 C142.728354,30.5744128 142.153737,30.3207205 141.93799,30.1215154 C141.85942,29.9214385 141.758342,28.9894897 141.758342,28.4045154 L142.074318,28.363541 C142.3113,29.2165923 142.829433,30.080541 143.507252,30.080541 C143.889056,30.080541 144.194414,29.7488231 144.194414,29.2819769 C144.194414,28.8299513 143.968899,28.5108744 143.325905,28.1377462 C142.750439,27.8186692 141.893396,27.3256692 141.893396,26.2211051 C141.893396,25.2233359 142.5933,24.3977462 143.732342,24.3977462 C144.22839,24.3842333 144.53205,24.5036692 144.780499,24.6244128 C144.893469,24.9299769 145.017056,25.8213872 145.051032,26.1143103 L144.724439,26.2211051 Z" id="Fill-91"></path>
                <path d="M148.582827,24.8763615 C148.041761,24.8763615 147.533821,25.6356949 147.533821,27.1530538 C147.533821,28.8037974 148.041761,30.080541 148.830851,30.080541 C149.361725,30.080541 149.857348,29.6551051 149.857348,27.7375923 C149.857348,25.9940026 149.406743,24.8763615 148.59302,24.8763615 L148.582827,24.8763615 Z M148.751008,24.3977462 C150.251044,24.3977462 151.266923,25.7695154 151.266923,27.3792846 C151.266923,29.5217205 149.947809,30.5744128 148.707264,30.5744128 C147.015689,30.5744128 146.12467,29.0819 146.12467,27.6185923 C146.12467,25.4486949 147.568222,24.3977462 148.739966,24.3977462 L148.751008,24.3977462 Z" id="Fill-93"></path>
                <path d="M157.65244,30.094359 C157.359398,30.1484103 157.042572,30.2142308 156.693895,30.3079487 C156.366452,30.3881538 156.027542,30.4945128 155.735349,30.5747179 L155.655931,30.4805641 L155.655931,29.6296923 C155.429991,29.8288974 155.261386,30.0141538 154.989154,30.2007179 C154.66256,30.4404615 154.380985,30.5747179 154.054392,30.5747179 C153.173991,30.5747179 152.600223,29.9217436 152.600223,28.6441282 L152.600223,25.9550769 C152.600223,25.3034103 152.520804,25.2349744 152.237955,25.1425641 L151.957229,25.0627949 L151.957229,24.6901026 C152.227337,24.6774615 152.542464,24.6508718 152.903033,24.6107692 C153.254259,24.5706667 153.614828,24.5035385 153.875169,24.4643077 C153.85181,24.9699487 153.839494,25.6220513 153.839494,26.4472051 L153.839494,28.3237436 C153.839494,29.3088718 154.26844,29.6148718 154.696536,29.6148718 C155.03587,29.6148718 155.351846,29.4954359 155.655931,29.1488974 L155.655931,25.9550769 C155.655931,25.3034103 155.576087,25.2232051 155.249494,25.1425641 L154.877458,25.0627949 L154.877458,24.6901026 C155.204901,24.6774615 155.599021,24.6508718 155.95959,24.5968205 C156.332051,24.5706667 156.670961,24.5035385 156.896901,24.4643077 L156.896901,28.8302564 C156.896901,29.5220256 156.963578,29.6296923 157.380633,29.6824359 L157.65244,29.7085897 L157.65244,30.094359 Z" id="Fill-95"></path>
                <path d="M160.258307,25.8077436 C160.641385,25.0235641 161.104307,24.3980513 161.566379,24.3980513 C161.996174,24.3980513 162.288792,24.756359 162.288792,25.1691538 C162.288792,25.555359 162.073894,25.9014615 161.803786,26.0213333 C161.65684,26.0880256 161.544719,26.0618718 161.477617,25.980359 C161.285228,25.7951026 161.150174,25.7013846 160.970102,25.7013846 C160.720804,25.7013846 160.450695,25.9550769 160.235798,26.5670769 L160.235798,29.0294615 C160.235798,29.8676923 160.293132,29.9352564 161.160792,30.0141538 L161.160792,30.4138718 L158.251605,30.4138718 L158.251605,30.0141538 C158.894599,29.9352564 158.994828,29.8676923 158.994828,29.0294615 L158.994828,26.1669231 C158.994828,25.4228462 158.927301,25.3687949 158.353108,25.2349744 L158.353108,24.8893077 C158.983361,24.7842564 159.594078,24.6242821 160.235798,24.3714615 L160.235798,25.8077436 L160.258307,25.8077436 Z" id="Fill-97"></path>
                <path d="M167.00452,29.1621051 C166.497005,29.9881308 165.752932,30.5744128 165.075962,30.5744128 C163.575502,30.5744128 162.695526,29.2022077 162.695526,27.7663615 C162.695526,26.7677205 163.101962,25.8484128 163.834143,25.1963103 C164.511962,24.5965154 165.234375,24.3977462 165.661622,24.3977462 L165.673089,24.3977462 C166.091417,24.3977462 166.463029,24.5442077 166.654568,24.7307718 C166.812131,24.8763615 166.857574,25.0110538 166.857574,25.1823615 C166.846107,25.5284641 166.574724,25.8623615 166.406544,25.8623615 C166.339441,25.8623615 166.270215,25.8213872 166.169986,25.7150282 C165.752932,25.2747718 165.380471,25.0764385 165.03052,25.0764385 C164.477986,25.0764385 163.925453,25.6622846 163.925453,27.0854897 C163.925453,28.8826949 164.996119,29.4694128 165.538884,29.4694128 C166.012423,29.4694128 166.350059,29.3212077 166.801089,28.8569769 L167.00452,29.1621051 Z" id="Fill-99"></path>
                <path d="M169.81403,24.9172051 C169.362999,24.9172051 168.933204,25.5152564 168.831701,26.5670769 C169.351108,26.5670769 169.848005,26.5535641 170.366563,26.5278462 C170.545786,26.5278462 170.614587,26.4881795 170.625204,26.2732821 C170.625204,25.5819487 170.320695,24.9172051 169.824647,24.9172051 L169.81403,24.9172051 Z M171.809689,29.1759231 C171.122102,30.3079487 170.276951,30.5747179 169.848005,30.5747179 C168.392138,30.5747179 167.569496,29.2556923 167.569496,27.7252564 C167.569496,26.7527692 167.896939,25.9149744 168.370054,25.3548462 C168.85506,24.756359 169.475545,24.3980513 170.062054,24.3980513 L170.072671,24.3980513 C171.076659,24.3980513 171.855557,25.4228462 171.855557,26.4881795 C171.855557,26.7527692 171.78803,26.9131795 171.551048,26.9541538 C171.347617,26.9925128 169.960975,27.1136923 168.77649,27.1655641 C168.810466,28.7365385 169.555388,29.4692821 170.35552,29.4692821 C170.79381,29.4692821 171.22318,29.2822821 171.61815,28.8568462 L171.809689,29.1759231 Z" id="Fill-101"></path>
                <path d="M175.612145,26.2211051 C175.340762,25.4090282 174.968302,24.8763615 174.428509,24.8763615 C174.077708,24.8763615 173.796558,25.210259 173.796558,25.6766692 C173.796558,26.1400282 174.123151,26.4599769 174.676533,26.7398231 C175.566702,27.1927205 176.164678,27.6586949 176.164678,28.6564641 C176.164678,29.9353872 175.138606,30.5744128 174.202994,30.5744128 C173.615636,30.5744128 173.040594,30.3207205 172.825696,30.1215154 C172.746277,29.9214385 172.646048,28.9894897 172.646048,28.4045154 L172.962024,28.363541 C173.199006,29.2165923 173.717564,30.080541 174.394533,30.080541 C174.776762,30.080541 175.081271,29.7488231 175.081271,29.2819769 C175.081271,28.8299513 174.856606,28.5108744 174.213612,28.1377462 C173.638145,27.8186692 172.781103,27.3256692 172.781103,26.2211051 C172.781103,25.2233359 173.480157,24.3977462 174.619199,24.3977462 C175.116097,24.3842333 175.419756,24.5036692 175.66863,24.6244128 C175.780326,24.9299769 175.904762,25.8213872 175.939163,26.1143103 L175.612145,26.2211051 Z" id="Fill-103"></path>
                <polygon id="Fill-106" points="0 30.3815718 5.59795482 30.3815718 5.59795482 1.21480256 0 1.21480256"></polygon>
            </g>
        </g>
    </g>
</svg>